<?xml version="1.0" standalone="no"?>
<!DOCTYPE svg PUBLIC "-//W3C//DTD SVG 20010904//EN"
 "http://www.w3.org/TR/2001/REC-SVG-20010904/DTD/svg10.dtd">
<svg version="1.0" xmlns="http://www.w3.org/2000/svg"
 width="700.000000pt" height="700.000000pt" viewBox="0 0 700.000000 700.000000"
 preserveAspectRatio="xMidYMid meet">
<metadata>
Created by potrace 1.14, written by Peter Selinger 2001-2017
</metadata>
<g transform="translate(0.000000,700.000000) scale(0.100000,-0.100000)"
fill="#000000" stroke="none">
<path d="M3481 6958 c-8 -18 -35 -76 -59 -128 -24 -52 -55 -118 -68 -146 -13
-29 -78 -168 -144 -310 -67 -143 -122 -263 -123 -269 -2 -10 20 -11 95 -4 l37
3 67 145 c37 81 92 197 121 258 29 62 53 116 53 120 0 5 7 16 15 26 15 21 6
39 190 -360 l89 -193 51 -2 c27 0 63 -2 78 -3 17 -1 26 2 23 9 -7 16 -116 256
-158 346 -19 41 -81 180 -138 308 -57 127 -107 232 -110 232 -3 0 -12 -15 -19
-32z"/>
<path d="M3410 6463 c-29 -65 -82 -178 -117 -252 -35 -73 -63 -135 -63 -136 0
-2 -22 -50 -49 -107 -27 -56 -88 -188 -136 -293 -48 -104 -100 -218 -116 -251
-16 -34 -29 -65 -29 -68 0 -3 12 -4 28 -2 15 3 63 8 107 11 44 3 89 8 100 10
11 2 35 4 53 4 33 1 35 4 86 114 94 199 128 271 162 346 l34 74 -2 334 -3 334
-55 -118z"/>
<path d="M3502 6249 l-1 -334 34 -75 c18 -41 55 -122 83 -180 27 -58 68 -144
90 -192 39 -84 43 -88 74 -89 18 -1 42 -3 53 -4 11 -1 56 -5 100 -9 44 -4 92
-9 108 -12 15 -2 27 0 27 5 0 5 -21 53 -46 108 -26 54 -72 154 -104 223 -32
69 -74 159 -93 200 -19 41 -96 207 -171 368 -74 161 -139 300 -144 309 -6 10
-10 -111 -10 -318z"/>
<path d="M3101 6070 l-35 -5 -167 -360 c-131 -281 -164 -361 -152 -363 9 -2
40 -1 70 3 l54 7 29 61 c50 112 142 311 175 382 18 39 43 93 55 120 12 28 35
76 51 107 l29 57 -38 -2 c-20 -1 -52 -4 -71 -7z"/>
<path d="M3775 6059 c4 -13 36 -84 71 -157 35 -74 64 -135 64 -137 0 -1 27
-61 61 -131 33 -71 76 -164 96 -206 20 -43 39 -78 42 -78 3 0 36 -3 74 -6 l67
-7 -19 44 c-10 24 -73 164 -140 312 -67 147 -132 292 -146 322 -19 44 -29 55
-47 55 -13 0 -47 3 -77 6 -52 6 -53 6 -46 -17z"/>
<path d="M3455 5829 c-4 -12 -32 -74 -62 -138 -76 -159 -123 -262 -134 -289
-8 -20 -6 -23 8 -18 15 4 148 17 191 19 9 0 12 52 12 224 0 123 -2 223 -4 223
-3 0 -8 -10 -11 -21z"/>
<path d="M3502 5627 l1 -227 41 -1 c53 -1 136 -8 159 -13 9 -2 17 -3 17 -2 0
3 -129 281 -183 395 l-35 75 0 -227z"/>
<path d="M3387 5364 c-1 -1 -35 -4 -75 -7 -40 -3 -75 -7 -77 -9 -2 -1 -49
-102 -105 -223 -56 -121 -116 -249 -132 -285 -138 -294 -178 -386 -173 -398 3
-7 8 -11 13 -8 7 4 53 9 202 21 137 12 136 11 158 63 11 26 43 94 70 152 27
58 84 179 126 269 l76 164 0 134 0 134 -40 -3 c-22 -1 -42 -3 -43 -4z"/>
<path d="M3500 5241 c0 -144 -6 -122 80 -306 23 -49 55 -117 70 -150 15 -33
50 -107 77 -165 28 -58 53 -116 57 -128 4 -12 15 -22 24 -23 9 0 24 -2 32 -3
8 -2 51 -6 95 -10 161 -13 210 -18 218 -23 16 -9 0 28 -89 214 -35 75 -64 137
-64 138 0 2 -40 88 -88 192 -49 103 -108 230 -132 281 -24 50 -48 92 -54 93
-6 1 -22 2 -36 4 -14 1 -62 6 -107 10 l-83 7 0 -131z"/>
<path d="M3148 5345 c-2 -2 -39 -6 -83 -9 -127 -10 -180 -17 -187 -24 -3 -4
-18 -33 -32 -65 l-25 -58 59 7 c33 4 60 4 60 1 0 -4 -70 -157 -162 -357 -56
-120 -93 -199 -133 -285 -21 -44 -43 -94 -51 -111 l-13 -32 32 4 c18 2 46 6
62 8 17 2 49 5 73 5 23 1 42 5 42 10 0 5 65 148 144 318 79 169 155 333 169
363 14 30 43 94 65 142 l40 87 -29 -1 c-16 -1 -30 -2 -31 -3z"/>
<path d="M3770 5341 c0 -4 53 -122 118 -262 66 -140 158 -339 207 -444 48
-104 90 -193 94 -197 3 -4 49 -10 101 -14 52 -3 98 -8 102 -10 3 -2 -41 101
-98 228 -58 128 -115 255 -127 282 -12 27 -41 90 -63 140 -23 50 -40 94 -38
97 2 4 24 2 50 -3 25 -6 47 -8 49 -6 2 2 -14 41 -35 86 -32 65 -44 82 -62 83
-13 1 -32 3 -43 4 -11 1 -58 6 -105 9 -47 4 -100 9 -117 11 -18 2 -33 1 -33
-4z"/>
<path d="M2805 5314 c-5 -2 -28 -4 -50 -6 -38 -3 -41 -6 -72 -68 -17 -36 -30
-66 -28 -68 1 -2 32 0 68 4 l66 7 25 51 c13 28 26 57 28 65 3 13 -17 21 -37
15z"/>
<path d="M4126 5312 c-2 -4 14 -44 35 -89 37 -78 41 -82 77 -88 20 -4 52 -11
71 -16 19 -4 36 -7 38 -5 4 4 -43 117 -67 161 -14 25 -23 29 -66 32 -27 1 -57
5 -66 7 -10 2 -20 1 -22 -2z"/>
<path d="M3420 4943 c-24 -54 -73 -159 -108 -233 -35 -74 -75 -158 -87 -187
l-23 -52 36 4 c41 4 200 17 220 18 9 0 12 62 12 274 0 150 -1 273 -3 273 -1 0
-22 -44 -47 -97z"/>
<path d="M3502 4771 c0 -149 3 -273 6 -275 4 -2 46 -6 94 -10 47 -3 105 -9
127 -12 23 -3 41 -4 41 -2 0 2 -11 26 -24 54 -13 27 -61 130 -107 229 -46 99
-96 204 -110 234 l-27 53 0 -271z"/>
<path d="M3377 4464 c-3 -2 -138 -14 -165 -14 -14 0 -26 -8 -31 -22 -5 -13
-31 -70 -59 -128 -83 -176 -123 -262 -152 -325 -31 -67 -84 -182 -137 -295
-20 -41 -47 -100 -61 -130 -13 -30 -49 -106 -78 -169 l-54 -113 83 7 c45 4 96
9 112 10 17 2 39 3 51 4 16 1 29 19 57 79 20 42 57 122 83 177 25 55 57 123
69 150 34 75 160 345 221 473 30 63 54 115 54 117 0 2 18 42 40 89 22 47 40
88 40 91 0 5 -67 4 -73 -1z"/>
<path d="M3520 4467 c0 -2 20 -46 44 -98 24 -52 55 -119 69 -149 13 -30 43
-93 64 -140 22 -47 51 -107 63 -135 13 -27 43 -93 67 -145 25 -52 88 -187 140
-300 52 -113 96 -206 97 -206 1 -2 91 -11 199 -19 64 -6 68 -5 59 12 -6 10
-23 47 -40 83 -44 97 -288 621 -338 728 -24 51 -44 95 -44 97 0 2 -27 60 -60
129 -58 122 -61 126 -92 127 -18 0 -41 2 -52 4 -31 6 -176 15 -176 12z"/>
<path d="M3139 4446 c-2 -2 -38 -7 -79 -10 -155 -14 -205 -19 -220 -22 -8 -1
-21 -3 -28 -3 -10 -1 -102 -176 -102 -194 0 -3 19 -1 43 4 23 4 45 8 49 9 7 0
-17 -56 -103 -238 -27 -57 -49 -105 -49 -107 0 -1 -24 -54 -54 -116 -29 -63
-64 -136 -76 -164 -12 -27 -39 -86 -60 -130 -63 -134 -100 -217 -100 -227 0
-5 15 -7 33 -4 17 3 74 8 126 12 l94 7 47 101 c62 132 110 235 175 376 50 109
75 162 161 348 72 154 116 248 136 292 11 25 22 48 24 52 5 7 -11 20 -17 14z"/>
<path d="M3810 4444 c0 -2 21 -48 46 -102 26 -53 59 -124 74 -157 59 -128 84
-183 125 -270 23 -49 100 -215 170 -367 74 -158 136 -280 145 -282 8 -3 51 -8
95 -11 44 -4 95 -8 113 -10 17 -2 32 0 32 4 0 8 -121 279 -201 449 -16 35 -29
65 -29 67 0 2 -16 39 -36 82 -37 80 -116 254 -140 309 l-13 32 41 -9 c22 -6
43 -8 45 -5 3 3 -92 225 -101 234 -4 3 -48 9 -131 16 -139 12 -201 19 -217 22
-10 1 -18 1 -18 -2z"/>
<path d="M3462 4433 c-1 -6 -24 -58 -51 -115 -187 -395 -190 -400 -171 -419
22 -22 54 -61 145 -174 l80 -99 3 201 c2 202 -1 628 -6 606z"/>
<path d="M3501 4030 c0 -239 3 -400 9 -400 5 0 13 6 17 14 4 8 40 49 80 92 39
44 89 99 110 123 l40 44 -25 51 c-13 28 -37 78 -52 111 -15 33 -45 96 -65 140
-21 44 -52 113 -71 153 -18 39 -35 72 -38 72 -2 0 -5 -180 -5 -400z"/>
<path d="M2708 4404 c-2 -2 -71 -9 -131 -13 -8 -1 -97 -186 -97 -202 0 -5 11
-7 24 -5 13 2 50 7 82 11 92 10 91 10 139 112 25 53 45 97 45 99 0 3 -59 2
-62 -2z"/>
<path d="M4207 4392 c4 -9 23 -51 43 -92 20 -41 42 -90 49 -107 8 -18 16 -33
20 -34 7 -1 8 -1 119 -24 46 -9 85 -15 87 -13 2 2 -5 21 -16 43 -10 22 -38 83
-62 135 -42 93 -45 95 -78 96 -19 0 -64 4 -101 7 -61 6 -67 5 -61 -11z"/>
<path d="M3203 3868 c-6 -7 -33 -64 -62 -126 -29 -62 -67 -145 -85 -185 -19
-39 -52 -112 -75 -161 -36 -78 -44 -115 -23 -102 4 2 45 7 92 11 47 3 103 8
125 10 22 2 74 7 115 11 41 3 78 9 82 13 4 3 29 55 57 115 52 114 51 110 10
154 -8 9 -62 74 -119 145 -56 70 -104 127 -105 127 -1 0 -7 -6 -12 -12z"/>
<path d="M3721 3817 c-24 -29 -80 -92 -125 -141 -44 -49 -86 -95 -92 -104 -9
-12 -3 -32 27 -94 22 -43 46 -94 53 -113 14 -33 18 -35 63 -36 26 0 55 -2 63
-4 15 -2 76 -9 215 -21 38 -3 77 -7 87 -9 10 -2 18 1 18 6 0 13 -258 570 -263
568 -1 0 -22 -24 -46 -52z"/>
<path d="M3457 3462 c-5 -13 -38 -85 -74 -160 -36 -76 -73 -155 -83 -177 -10
-22 -44 -94 -74 -159 -31 -68 -52 -125 -47 -130 4 -6 50 -65 101 -131 52 -66
114 -146 139 -179 l46 -58 3 257 c4 395 -2 763 -11 737z"/>
<path d="M3501 2972 l0 -512 32 38 c18 20 37 42 42 48 6 6 28 32 50 59 22 26
72 86 111 133 l72 85 -18 41 c-9 23 -49 109 -87 191 -39 83 -87 188 -109 235
-21 47 -51 109 -65 139 l-27 55 -1 -512z"/>
<path d="M3298 3305 c-2 -2 -41 -6 -88 -9 -86 -7 -114 -9 -226 -21 l-61 -7
-41 -86 c-100 -212 -152 -324 -152 -327 0 -1 -27 -61 -61 -131 -34 -71 -83
-176 -109 -234 -26 -58 -68 -148 -93 -200 -50 -107 -107 -232 -107 -235 0 -1
12 -1 28 0 15 2 61 6 102 9 74 6 114 10 240 24 55 6 66 11 77 32 11 21 111
234 213 455 91 198 180 389 265 570 83 177 79 164 45 163 -16 -1 -31 -2 -32
-3z"/>
<path d="M3617 3293 c4 -10 22 -48 40 -86 18 -37 33 -69 33 -71 0 -2 24 -55
54 -117 29 -63 65 -139 79 -169 14 -30 73 -158 132 -285 59 -126 130 -279 157
-340 28 -60 56 -115 62 -122 6 -6 47 -14 91 -18 44 -3 91 -8 105 -10 14 -2 65
-7 113 -10 48 -4 97 -8 108 -10 10 -2 19 -2 19 1 0 6 -73 165 -239 521 -188
403 -201 431 -261 563 -29 63 -56 118 -59 122 -7 7 -47 12 -261 32 -30 3 -83
8 -117 11 -58 6 -62 5 -56 -12z"/>
<path d="M2857 3264 c-1 -1 -42 -5 -92 -8 -49 -4 -99 -8 -110 -9 -22 -3 -95
-130 -83 -143 4 -4 30 -2 57 3 57 11 58 22 -9 -122 -23 -49 -53 -115 -67 -145
-42 -91 -78 -169 -137 -294 -31 -65 -56 -119 -56 -121 0 -2 -23 -52 -51 -112
-88 -185 -119 -255 -119 -265 0 -5 24 -7 58 -4 31 3 63 5 70 5 11 1 60 96 122
236 10 22 82 177 160 345 78 168 154 330 168 360 13 30 48 105 77 167 47 98
51 111 33 110 -10 -1 -20 -2 -21 -3z"/>
<path d="M4085 3249 c4 -12 34 -78 66 -147 33 -68 59 -125 59 -127 0 -1 24
-54 54 -116 29 -63 67 -144 85 -181 17 -38 44 -96 60 -130 16 -35 75 -160 129
-278 l100 -215 54 -8 c85 -12 90 -10 68 38 -10 22 -65 146 -123 275 -58 129
-116 260 -130 290 -14 30 -61 135 -106 233 l-80 178 29 -5 c17 -3 43 -9 60
-12 l29 -5 -44 91 c-25 50 -45 95 -45 100 0 6 -3 10 -7 11 -5 0 -17 2 -28 4
-11 2 -54 7 -95 10 -41 3 -90 8 -108 11 -31 5 -33 4 -27 -17z"/>
<path d="M2517 3234 c-3 -3 -120 -13 -148 -14 -23 0 -32 -10 -63 -76 -20 -42
-36 -80 -36 -84 0 -5 10 -7 23 -5 12 2 56 9 97 15 41 6 88 14 104 16 41 7 45
10 68 63 42 98 43 92 -3 89 -22 -2 -41 -4 -42 -4z"/>
<path d="M4383 3208 c12 -27 78 -169 81 -175 1 -1 17 -5 36 -8 19 -3 43 -8 52
-11 9 -3 25 -7 35 -9 10 -2 48 -10 84 -18 l66 -14 -54 121 c-30 66 -55 122
-56 122 -1 1 -33 5 -72 9 -38 3 -96 8 -128 11 l-58 6 14 -34z"/>
<path d="M3025 2533 c-70 -153 -143 -309 -162 -347 -32 -66 -42 -102 -25 -93
4 3 45 8 92 12 95 8 108 9 235 21 50 4 93 9 98 10 4 1 21 2 37 3 28 1 34 8 76
99 26 53 55 116 65 140 l19 43 -27 37 c-15 20 -39 51 -53 68 -40 49 -50 63
-139 177 -46 59 -85 107 -85 107 -1 0 -60 -125 -131 -277z"/>
<path d="M3667 2605 l-157 -185 62 -132 c33 -73 64 -136 67 -140 3 -3 38 -9
76 -12 39 -4 88 -9 110 -11 39 -5 66 -7 230 -21 44 -3 83 -8 88 -11 4 -2 -3
20 -16 49 -38 84 -298 643 -301 646 -2 1 -73 -81 -159 -183z"/>
<path d="M3425 2228 c-21 -46 -71 -153 -110 -238 -40 -85 -91 -195 -114 -243
-22 -49 -41 -91 -41 -93 0 -2 -29 -63 -64 -137 -101 -209 -99 -205 -80 -236
14 -22 119 -161 147 -196 5 -5 76 -100 158 -209 l149 -199 0 817 c0 449 -2
816 -3 816 -2 0 -21 -37 -42 -82z"/>
<path d="M3502 1495 l0 -814 22 27 c58 70 446 592 446 599 0 9 -163 363 -269
586 -28 60 -51 110 -51 112 0 1 -29 64 -65 140 -36 75 -65 140 -65 145 0 5 -4
11 -9 14 -5 3 -9 -342 -9 -809z"/>
<path d="M3299 2116 c-2 -2 -49 -7 -104 -10 -55 -4 -109 -9 -120 -11 -11 -2
-56 -7 -100 -10 -170 -11 -162 -7 -202 -94 -19 -42 -61 -132 -93 -201 -32 -69
-74 -159 -93 -200 -56 -121 -361 -777 -407 -875 -89 -190 -150 -324 -150 -332
0 -4 116 3 190 12 19 2 72 7 118 11 46 3 91 7 100 9 9 2 34 4 55 4 l38 1 51
108 c28 59 64 136 80 172 17 36 43 92 58 125 45 98 98 212 160 345 32 69 78
168 103 220 24 52 56 120 70 150 13 30 44 96 67 145 23 50 54 115 67 145 14
30 44 93 65 140 61 129 69 150 60 150 -5 0 -11 -2 -13 -4z"/>
<path d="M3653 2113 c3 -5 16 -33 30 -63 14 -30 44 -95 67 -145 23 -49 54
-117 70 -150 15 -33 44 -96 65 -140 20 -44 63 -136 95 -205 32 -69 83 -178
114 -244 31 -65 56 -119 56 -121 0 -2 21 -47 46 -102 65 -137 191 -408 220
-471 24 -50 26 -52 67 -53 23 0 49 -2 57 -3 8 -2 53 -6 100 -10 47 -4 103 -9
125 -11 122 -13 175 -15 175 -9 0 7 -36 85 -161 352 -27 57 -49 105 -49 107 0
1 -24 54 -54 116 -51 109 -141 301 -341 734 -51 110 -111 239 -134 288 -22 48
-46 88 -53 88 -7 1 -22 3 -33 4 -11 2 -56 6 -100 9 -44 4 -93 8 -110 11 -16 2
-66 6 -110 10 -44 3 -95 8 -113 11 -18 2 -31 1 -29 -3z"/>
<path d="M2727 2064 c-1 -1 -40 -5 -87 -9 -47 -3 -101 -8 -120 -10 -19 -2 -66
-7 -105 -11 -38 -3 -70 -7 -70 -8 0 0 -17 -36 -38 -79 -20 -42 -37 -79 -37
-80 0 -2 42 2 93 9 50 6 93 10 94 9 2 -1 -63 -143 -143 -316 -80 -173 -156
-336 -169 -364 -29 -64 -216 -466 -263 -565 -147 -317 -137 -289 -104 -285 15
2 68 7 117 10 50 4 94 10 99 12 5 3 26 45 48 92 105 228 420 903 484 1039 30
63 54 115 54 117 0 3 158 342 186 399 19 40 18 46 -12 44 -14 -2 -26 -3 -27
-4z"/>
<path d="M4190 2065 c0 -2 45 -100 99 -217 54 -117 143 -307 196 -423 54 -115
111 -239 128 -275 16 -36 54 -116 83 -179 30 -62 54 -115 54 -116 0 -2 22 -50
49 -107 69 -146 120 -255 147 -315 26 -58 28 -59 134 -68 36 -3 77 -7 93 -9
15 -2 27 -2 27 -1 0 4 -55 128 -122 275 -17 36 -111 245 -210 465 -174 386
-238 529 -299 663 -16 35 -29 65 -29 66 0 3 77 -13 157 -32 l42 -10 -23 52
c-76 170 -90 196 -100 197 -6 0 -24 2 -41 3 -16 2 -61 6 -100 10 -38 3 -95 8
-125 11 -116 11 -160 14 -160 10z"/>
<path d="M2267 2024 c-1 -1 -23 -4 -50 -6 -26 -3 -48 -7 -50 -9 -5 -8 -50
-105 -64 -137 l-14 -34 58 8 c32 4 65 8 73 9 15 1 69 92 89 147 9 26 8 28 -15
26 -14 -2 -26 -3 -27 -4z"/>
<path d="M4707 1906 c30 -66 57 -122 58 -124 5 -6 128 -33 136 -30 4 2 -18 60
-49 130 -63 141 -51 130 -158 141 l-42 5 55 -122z"/>
<path d="M2956 1219 c-13 -30 -45 -99 -71 -154 -26 -55 -73 -156 -105 -225
-32 -69 -73 -159 -93 -200 -19 -41 -45 -97 -57 -125 -12 -27 -27 -58 -32 -68
-10 -20 -24 -20 162 -2 25 3 79 7 120 10 41 3 86 8 100 10 14 2 70 7 125 11
55 3 107 7 115 9 8 2 53 6 100 10 47 4 86 8 88 10 2 2 16 30 32 62 l28 60 -67
89 c-60 80 -409 543 -417 553 -2 2 -15 -20 -28 -50z"/>
<path d="M3885 1134 c-55 -75 -105 -141 -110 -148 -6 -6 -22 -27 -35 -46 -13
-19 -27 -37 -30 -40 -9 -8 -176 -233 -191 -257 -12 -19 -10 -29 16 -82 26 -55
32 -61 59 -62 17 0 47 -2 66 -4 19 -2 67 -7 105 -10 39 -4 90 -9 115 -10 47
-3 144 -12 220 -20 43 -4 81 -8 218 -20 l63 -6 -14 33 c-12 27 -100 217 -252
543 -97 208 -124 265 -127 265 -2 0 -48 -62 -103 -136z"/>
<path d="M3462 544 c-1 -7 -31 -72 -65 -145 -35 -74 -77 -163 -93 -199 -16
-36 -43 -94 -60 -130 l-31 -65 125 -3 c68 -1 126 -1 129 1 2 2 2 127 0 278 -1
151 -3 269 -5 263z"/>
<path d="M3502 276 l0 -276 129 0 128 0 -28 63 c-55 121 -223 482 -226 485 -2
2 -3 -120 -3 -272z"/>
<path d="M3328 474 c-2 -1 -41 -5 -88 -9 -47 -3 -96 -8 -110 -10 -14 -2 -67
-7 -118 -10 -51 -4 -102 -8 -115 -10 -12 -2 -53 -6 -92 -9 -87 -8 -195 -18
-214 -21 -12 -1 -75 -128 -176 -352 l-24 -53 393 0 392 0 64 138 c35 75 83
179 107 230 23 51 43 97 43 102 0 7 -55 11 -62 4z"/>
<path d="M3580 471 c0 -5 23 -58 51 -117 28 -60 74 -158 102 -219 28 -60 56
-116 62 -123 8 -9 96 -12 398 -10 l386 3 -53 115 c-147 318 -131 290 -173 291
-21 1 -49 2 -63 4 -14 1 -65 6 -115 9 -49 4 -101 9 -115 11 -14 2 -61 7 -105
10 -44 4 -96 9 -115 11 -19 2 -66 6 -105 9 -38 3 -89 8 -112 11 -24 2 -43 0
-43 -5z"/>
<path d="M2447 394 c-1 -1 -40 -5 -87 -9 -47 -3 -98 -8 -115 -10 -16 -2 -70
-6 -120 -10 -49 -4 -94 -8 -100 -8 -13 -2 -44 -57 -45 -79 0 -10 6 -15 13 -13
6 2 30 7 52 10 63 9 108 16 132 21 25 5 29 17 -75 -209 l-41 -87 138 0 137 0
29 63 c48 103 143 310 153 330 3 6 -64 7 -71 1z"/>
<path d="M4460 374 c6 -16 19 -44 30 -64 20 -38 95 -199 125 -268 l19 -42 133
0 133 0 -9 23 c-5 12 -25 58 -45 101 -20 44 -34 81 -31 84 3 3 52 -5 110 -18
58 -13 108 -21 110 -18 8 7 -78 183 -90 184 -5 1 -46 5 -90 8 -44 4 -98 9
-120 11 -75 8 -150 15 -218 21 l-67 6 10 -28z"/>
<path d="M1821 335 l-85 -10 -22 -50 c-13 -27 -22 -51 -20 -53 2 -2 30 1 62 7
67 12 152 24 173 24 10 0 51 74 51 93 0 5 -57 1 -159 -11z"/>
<path d="M4990 343 c0 -6 20 -50 44 -99 l43 -89 113 -23 c62 -12 114 -21 116
-19 2 2 -17 51 -43 108 -26 57 -47 105 -48 105 0 3 -75 12 -152 20 -46 4 -73
3 -73 -3z"/>
</g>
</svg>
