<?xml version="1.0" standalone="no"?>
<!DOCTYPE svg PUBLIC "-//W3C//DTD SVG 20010904//EN"
 "http://www.w3.org/TR/2001/REC-SVG-20010904/DTD/svg10.dtd">
<svg version="1.0" xmlns="http://www.w3.org/2000/svg"
 width="288.000000pt" height="288.000000pt" viewBox="0 0 288.000000 288.000000"
 preserveAspectRatio="xMidYMid meet">
<metadata>
Created by potrace 1.14, written by Peter Selinger 2001-2017
</metadata>
<g transform="translate(0.000000,288.000000) scale(0.100000,-0.100000)"
fill="#000000" stroke="none">
<path d="M1157 2454 c-4 -4 -176 -7 -382 -6 -207 0 -373 -3 -370 -7 4 -3 59
-31 122 -61 l116 -55 3 -325 c5 -492 5 -1272 0 -1300 -3 -14 -7 -41 -10 -60
-16 -109 -98 -256 -177 -319 l-41 -34 20 -20 21 -20 41 27 c60 39 95 70 178
155 156 158 239 318 269 516 2 17 6 333 7 703 l3 674 30 18 c17 10 62 35 102
55 39 20 74 41 77 47 7 11 0 21 -9 12z"/>
<path d="M1716 2213 c-1 -1 -49 -4 -106 -7 -297 -16 -380 -22 -387 -30 -9 -9
-7 -10 97 -55 l95 -40 -1 -658 c-1 -539 -4 -774 -13 -844 -1 -4 -44 -31 -96
-60 -52 -30 -95 -57 -95 -60 0 -11 97 -14 440 -13 331 1 367 3 500 30 335 69
505 245 487 506 -6 97 -37 167 -103 231 -82 81 -247 146 -414 163 -36 3 -69
10 -74 15 -6 5 -8 9 -5 10 251 41 414 140 468 284 53 140 18 305 -82 390 -79
68 -229 118 -389 131 -75 6 -317 11 -322 7z m241 -79 c130 -32 177 -67 221
-161 24 -52 27 -69 27 -173 0 -138 -17 -197 -77 -265 -43 -49 -105 -85 -178
-105 -65 -18 -78 -20 -157 -25 l-73 -4 0 373 c0 205 2 375 5 378 11 10 167 -2
232 -18z m-22 -798 c46 -5 145 -36 188 -57 131 -67 191 -213 165 -402 -28
-203 -201 -353 -432 -374 -130 -11 -120 -14 -127 42 -3 28 -7 221 -8 429 l-2
379 93 -7 c51 -3 107 -8 123 -10z"/>
</g>
</svg>
