<?xml version="1.0" encoding="utf-8"?>
<!-- Generator: Adobe Illustrator 25.0.0, SVG Export Plug-In . SVG Version: 6.00 Build 0)  -->
<svg version="1.1" id="Layer_1" xmlns="http://www.w3.org/2000/svg" xmlns:xlink="http://www.w3.org/1999/xlink" x="0px" y="0px"
	 viewBox="0 0 216 216" style="enable-background:new 0 0 216 216;" xml:space="preserve">
<style type="text/css">
	.st0{fill:#FFFFFF;}
	.st1{fill:#BEB7A6;}
</style>
<path class="st0" d="M108,214.2c58.6,0,106.2-47.5,106.2-106.2C214.2,49.4,166.6,1.8,108,1.8S1.8,49.4,1.8,108S49.4,214.2,108,214.2
	"/>
<path class="st1" d="M82.4,90h11V79.4c0-4.7,0.1-12,3.5-16.4c3.6-4.8,8.5-8,17-8c13.8,0,19.7,2,19.7,2l-2.7,16.3
	c0,0-4.6-1.3-8.8-1.3c-4.3,0-8.1,1.5-8.1,5.8V90h17.5l-1.2,15.9H114v55.2H93.4v-55.2h-11V90z"/>
</svg>
