<?xml version="1.0" encoding="utf-8"?>
<!-- Generator: Adobe Illustrator 24.2.0, SVG Export Plug-In . SVG Version: 6.00 Build 0)  -->
<svg version="1.1" id="Layer_1" xmlns="http://www.w3.org/2000/svg" xmlns:xlink="http://www.w3.org/1999/xlink" x="0px" y="0px"
	 viewBox="0 0 216 216" style="enable-background:new 0 0 216 216;" xml:space="preserve">
<style type="text/css">
	.st0{fill:#FFFFFF;}
	.st1{fill:#D9D8D6;}
</style>
<path class="st0" d="M108,213.9c58.6,0,106.2-47.5,106.2-106.2C214.2,49.1,166.6,1.6,108,1.6S1.8,49.1,1.8,107.8
	C1.8,166.4,49.4,213.9,108,213.9"/>
<g>
	<path class="st1" d="M108,63.6c14.4,0,16.1,0.1,21.8,0.3c5.2,0.2,8.1,1.1,10,1.9c2.5,1,4.3,2.1,6.2,4s3.1,3.7,4,6.2
		c0.7,1.9,1.6,4.7,1.9,10c0.3,5.7,0.3,7.4,0.3,21.8s-0.1,16.1-0.3,21.8c-0.2,5.2-1.1,8.1-1.9,10c-1,2.5-2.1,4.3-4,6.2
		s-3.7,3.1-6.2,4c-1.9,0.7-4.7,1.6-10,1.9c-5.7,0.3-7.4,0.3-21.8,0.3s-16.1-0.1-21.8-0.3c-5.2-0.2-8.1-1.1-10-1.9
		c-2.5-1-4.3-2.1-6.2-4c-1.9-1.9-3.1-3.7-4-6.2c-0.7-1.9-1.6-4.7-1.9-10c-0.3-5.7-0.3-7.4-0.3-21.8s0.1-16.1,0.3-21.8
		c0.2-5.2,1.1-8.1,1.9-10c1-2.5,2.1-4.3,4-6.2c1.9-1.9,3.7-3.1,6.2-4c1.9-0.7,4.7-1.6,10-1.9C91.9,63.7,93.6,63.6,108,63.6
		 M108,53.9c-14.6,0-16.5,0.1-22.2,0.3c-5.7,0.3-9.6,1.2-13.1,2.5c-3.5,1.4-6.5,3.2-9.5,6.2s-4.8,6-6.2,9.5
		c-1.3,3.4-2.2,7.3-2.5,13.1c-0.3,5.7-0.3,7.6-0.3,22.2s0.1,16.5,0.3,22.2c0.3,5.7,1.2,9.6,2.5,13.1c1.4,3.5,3.2,6.5,6.2,9.5
		s6,4.8,9.5,6.2c3.4,1.3,7.3,2.2,13.1,2.5c5.7,0.3,7.6,0.3,22.2,0.3s16.5-0.1,22.2-0.3c5.7-0.3,9.6-1.2,13.1-2.5
		c3.5-1.4,6.5-3.2,9.5-6.2s4.8-6,6.2-9.5c1.3-3.4,2.2-7.3,2.5-13.1c0.3-5.7,0.3-7.6,0.3-22.2s-0.1-16.5-0.3-22.2
		c-0.3-5.7-1.2-9.6-2.5-13.1c-1.4-3.5-3.2-6.5-6.2-9.5s-6-4.8-9.5-6.2c-3.4-1.3-7.3-2.2-13.1-2.5C124.5,54,122.6,53.9,108,53.9
		L108,53.9z"/>
	<path class="st1" d="M108,80.1c-15.3,0-27.7,12.4-27.7,27.7s12.4,27.7,27.7,27.7s27.7-12.4,27.7-27.7S123.3,80.1,108,80.1z
		 M108,125.7c-9.9,0-17.9-8-17.9-17.9s8-17.9,17.9-17.9s17.9,8,17.9,17.9S117.9,125.7,108,125.7z"/>
	<circle class="st1" cx="136.7" cy="79" r="6.5"/>
</g>
</svg>
