<?xml version="1.0" encoding="utf-8"?>
<!-- Generator: Adobe Illustrator 20.0.0, SVG Export Plug-In . SVG Version: 6.00 Build 0)  -->
<svg version="1.1" id="Layer_1" xmlns="http://www.w3.org/2000/svg" xmlns:xlink="http://www.w3.org/1999/xlink" x="0px" y="0px"
	 viewBox="0 0 64.8 64.8" style="enable-background:new 0 0 64.8 64.8;" xml:space="preserve">
<style type="text/css">
	.st0{fill:#A8C837;}
	.st1{fill:#FFFFFF;}
</style>
<path class="st0" d="M57.7,29c-0.1,2.7-0.2,4.6-0.4,6.5c-0.3,3.2-1.8,6-2.6,9c-1.2,3.9-3.6,6.8-6.6,9.4c-2.1,1.9-4.6,2.9-7.3,3.5
	c-1.7,0.4-3.5,0.8-5.2,1.2c-5.5,1.2-10.9,0.8-16.2-0.8c-2.9-0.9-5.3-2.6-7.5-4.6c-2.3-2.1-3.4-4.9-3.6-7.9c-0.2-2.7-0.1-5.5,0.4-8.2
	c0.5-3.3,1.4-6.6,2.2-9.8c0.8-3.1,2.5-5.8,4.1-8.5c1.4-2.4,2.9-4.6,4.4-6.9c0.1-0.2,0.3-0.4,0.3-0.5c0.1-2.2,1.8-3,3.3-3.8
	c4.4-2.3,9.1-2.6,13.8-2.2c3.3,0.3,6.4,1.1,9.4,2.6c2.6,1.2,4.8,2.9,6.6,5.3c2.3,3,4,6.2,4.5,10C57.6,25.4,57.6,27.6,57.7,29z"/>
<path class="st1" d="M30.1,27c-0.1-0.1-0.3-0.3-0.4-0.3c-0.8-0.3-1.8-0.1-2.7,0c-0.9,0-2-0.5-1.9-1.4c0-0.1,0-0.3,0.1-0.3
	c0.1-0.1,0.2-0.1,0.4-0.1c1.6-0.2,3.1-0.3,4.7-0.5c0.3,0,0.6-0.1,0.9-0.2c0.4-0.2,0.6-0.6,0.8-1c0.9-1.8,1.8-3.6,2.7-5.4
	c0.1-0.2,0.2-0.4,0.4-0.5c0.4-0.2,0.9,0.1,1,0.6c0.1,0.4-0.1,0.9-0.3,1.3c-0.7,1.7-1.4,3.3-2.1,5c1.2,0.3,2.4,0.4,3.6,0.3
	c0.3,0,0.6-0.1,0.8-0.2c0.3-0.2,0.4-0.5,0.5-0.8c0.6-1.6,1.3-3.3,1.9-4.9c0.2-0.4,0.3-0.8,0.6-1.1s0.8-0.5,1.1-0.3
	c0.5,0.2,0.7,0.7,0.6,1.2c-0.1,0.5-0.3,0.9-0.6,1.3c-0.8,1.5-1.3,3.1-1.5,4.7c1,0.2,2.1,0.4,3.1,0.6c0.3,0,0.6,0.1,0.8,0.3
	c0.4,0.4,0.1,1-0.3,1.3c-0.4,0.3-1,0.3-1.5,0.3c-0.9,0-1.7,0-2.6,0.1c-0.3,0-0.5,0-0.7,0.2c-0.2,0.1-0.3,0.4-0.4,0.6
	c-1.2,2.7-2.3,5.5-3.4,8.2c-0.3,0.8-0.6,1.6-0.6,2.4c0,0.1,0,0.3,0.1,0.4c0.1,0.1,0.3,0.2,0.4,0.2c0.7,0.1,1.4-0.1,2.1,0.1
	c0.7,0.2,1.3,1,0.9,1.6c-0.2,0.3-0.6,0.4-0.9,0.5c-0.8,0.2-1.7,0.3-2.5,0.2c-0.5,0-1-0.1-1.4,0.2c-0.2,0.2-0.4,0.4-0.5,0.6
	c-0.8,1.4-1.4,2.8-1.9,4.3c-0.4,1.1-0.8,2.3-1.5,3.3c-0.3,0.3-0.6,0.7-1.1,0.7c-0.6,0-1-0.6-1.1-1.1c0-0.6,0.2-1.1,0.4-1.7
	c0.9-2.1,2-4.1,3.1-6.1c-0.8-0.6-1.8-0.6-2.7-0.5c-0.7,0-1.4,0.1-1.9,0.5c-0.8,0.6-1.1,1.6-1.4,2.5c-0.5,1.5-1,3-1.6,4.5
	c-0.3,0.6-0.6,1.3-1.2,1.6c-0.6,0.3-1.4,0.1-1.6-0.6c-0.2-0.7,0.3-1.9,0.6-2.5c0.7-1.7,1.8-3.1,2.3-4.9c0-0.2,0.1-0.4,0-0.5
	c-0.1-0.2-0.3-0.3-0.6-0.4c-0.5-0.1-1.1,0-1.7,0.1c-0.6,0.1-1.1,0.1-1.6-0.1c-0.5-0.3-0.8-1-0.5-1.4c0.2-0.3,0.6-0.4,1-0.5
	c0.8-0.1,1.7-0.2,2.6-0.3c0.6,0,1.3,0,1.8-0.3c0.7-0.4,1.1-1.2,1.4-2c1.2-2.9,2.5-5.8,3.7-8.7c0.1-0.2,0.2-0.4,0.1-0.6
	C30.2,27.1,30.1,27.1,30.1,27z M32.7,26.6c-0.5,1.2-1.2,2.5-1.7,3.7c-0.9,2.2-1.8,4.4-2.6,6.7c-0.2,0.4-0.1,0.9-0.1,1.5
	c1.4,0.2,2.7,0.4,4.2,0.1c1-2.4,2-4.8,3-7.2c0.5-1.1,0.9-2.3,1.3-3.5c0.1-0.3,0.1-0.6,0.2-0.9C35.1,26.2,35,26.2,32.7,26.6z"/>
</svg>
