<?xml version="1.0" encoding="utf-8"?>
<!-- Generator: Adobe Illustrator 24.2.0, SVG Export Plug-In . SVG Version: 6.00 Build 0)  -->
<svg version="1.1" id="Layer_1" xmlns="http://www.w3.org/2000/svg" xmlns:xlink="http://www.w3.org/1999/xlink" x="0px" y="0px"
	 viewBox="0 0 216 216" style="enable-background:new 0 0 216 216;" xml:space="preserve">
<style type="text/css">
	.st0{fill:#FFFFFF;}
	.st1{fill:#D9D8D6;}
</style>
<path class="st0" d="M108,214.2c58.6,0,106.2-47.5,106.2-106.2C214.2,49.4,166.6,1.8,108,1.8S1.8,49.4,1.8,108S49.4,214.2,108,214.2
	"/>
<path class="st1" d="M161.3,80.2c-3.9,1.7-8.1,2.9-12.5,3.4c4.5-2.7,8-7,9.6-12.1c-4.2,2.5-8.9,4.3-13.9,5.3
	c-4-4.2-9.6-6.9-15.9-6.9c-12,0-21.8,9.8-21.8,21.8c0,1.7,0.2,3.4,0.6,5c-18.1-0.9-34.2-9.6-45-22.8c-1.9,3.2-3,7-3,11
	c0,7.6,3.9,14.2,9.7,18.2c-3.6-0.1-6.9-1.1-9.9-2.7v0.3c0,10.6,7.5,19.4,17.5,21.4c-1.8,0.5-3.8,0.8-5.8,0.8c-1.4,0-2.8-0.1-4.1-0.4
	c2.8,8.7,10.8,15,20.4,15.1c-7.5,5.9-16.9,9.3-27.1,9.3c-1.8,0-3.5-0.1-5.2-0.3c9.7,6.2,21.1,9.8,33.4,9.8
	c40.1,0,62.1-33.2,62.1-62.1c0-0.9,0-1.9-0.1-2.8C154.6,88.4,158.3,84.6,161.3,80.2"/>
</svg>
