<?xml version="1.0" encoding="utf-8"?>
<!-- Generator: Adobe Illustrator 20.0.0, SVG Export Plug-In . SVG Version: 6.00 Build 0)  -->
<svg version="1.1" id="Layer_1" xmlns="http://www.w3.org/2000/svg" xmlns:xlink="http://www.w3.org/1999/xlink" x="0px" y="0px"
	 viewBox="0 0 64.8 64.8" style="enable-background:new 0 0 64.8 64.8;" xml:space="preserve">
<style type="text/css">
	.st0{fill:#A8C837;}
	.st1{fill:#FFFFFF;}
</style>
<path class="st0" d="M35,6.6c3.1-0.1,6.1,0,9.1,1c7.9,2.6,13.6,7.4,16,15.6c0.3,1.1,0.5,2.2,0.3,3.4c-0.2,1.3-0.3,2.7-0.5,4.1
	c-0.4,2.7-1.2,5.3-2.5,7.8c-1,1.7-1.8,3.6-2.7,5.4c-2.3,5.1-6,8.8-10.8,11.5c-1.1,0.6-2.3,0.9-3.5,1.3c-4.2,1.3-8.4,2-12.8,1.6
	c-2.9-0.3-5.6-0.9-8.2-2c-4.1-1.7-7.6-4-10.9-6.9c-1.7-1.6-2.6-3.5-2.8-5.8c-0.5-8.7,1.5-16.9,5.5-24.7c1.2-2.4,2.9-4.4,5.3-5.6
	c0.9-0.5,1.7-1.3,2.6-1.8c1.2-0.7,2.4-1.4,3.6-1.9c1.5-0.7,3.2-1.1,4.7-1.9c1.9-1,3.8-1.3,5.8-1C33.7,6.6,34.4,6.6,35,6.6z"/>
<g>
	<path class="st1" d="M34,29.1C34,29,34,29,34,29.1c0.2-0.2,0.2-0.4,0.3-0.7c0.6-2.7,0.9-5.4,0.8-8.2c0-0.8-0.2-1.8-0.9-2.2
		c-0.4-0.2-0.8-0.2-1.2-0.2c-1.1,0-2.2,0-3.4,0.1c-0.6,0-1.5-0.2-1.5-0.8c0-0.6,0.7-0.9,1.3-1c1.4-0.2,2.8-0.3,4.1-0.3
		c1.2,0,2.6,0.3,3.2,1.3c0.2,0.5,0.3,1,0.3,1.6c0.1,3.3,0.3,6.7-0.4,10c-0.2,0.9-0.4,1.8-1.1,2.3c-0.8,0.7-2,0.6-2.9,1.1
		c-0.9,0.5-1.4,1.4-1.6,2.4s-0.2,2-0.2,2.9c0,1.8,0.1,3.6,0.1,5.5c0,0.3,0,0.7-0.2,0.9c-0.3,0.4-1,0.4-1.4,0.1c-1-0.7-0.7-1.9-0.7-3
		c0.1-1.2,0.1-2.5,0-3.7c-0.1-1.6-0.2-3.3,0.5-4.7c0.8-1.6,2.6-2.4,4.2-3.1C33.6,29.3,33.8,29.2,34,29.1z"/>
	<path class="st1" d="M28.8,52.1c-0.3,0-0.5,0-0.6,0c-0.8-0.1-1.3-0.8-1-1.6c0.5-1.6,2.8-2.2,4.1-1.2c0.2,0.2,0.3,0.6,0.4,0.9
		c0,0.8-0.5,1.5-1.2,1.7C29.8,52,29.2,52,28.8,52.1z"/>
</g>
</svg>
