<?xml version="1.0" encoding="utf-8"?>
<!-- Generator: Adobe Illustrator 20.0.0, SVG Export Plug-In . SVG Version: 6.00 Build 0)  -->
<svg version="1.1" id="Layer_1" xmlns="http://www.w3.org/2000/svg" xmlns:xlink="http://www.w3.org/1999/xlink" x="0px" y="0px"
	 viewBox="0 0 216 108" style="enable-background:new 0 0 216 108;" xml:space="preserve">
<style type="text/css">
	.st0{fill:#A8C837;}
</style>
<g>
	<path class="st0" d="M129.8,51c0,0-0.1,0-0.1,0c3.5,11,3.9,23,1.2,34.2c-0.2,0.8-0.4,1.6-1,2.2c-1.6,1.7-4.7,0.2-5.4-2.1
		c-0.7-2.2,0.2-4.6,0.9-6.8c3.1-9.7,2.3-22-6-28c-2.7,12.1-4.2,24.5-4.6,36.9c-0.1,1.8-0.4,4.1-2.1,4.7c-1.4,0.5-3-0.6-3.6-2
		c-0.6-1.4-0.4-3-0.3-4.5c1.4-12.8,2.8-25.7,4.1-38.5c0.7-6.2,1.3-12.5,2-18.7c0.4-3.4-0.7-15.6,5.6-12.9c0.2,1.6,0.6,3.1,1.4,4.5
		c2.8-1.9,5.6-3.8,8.3-5.7c1-0.7,2.2-1.5,3.4-1.4c2.5,0.1,3.9,3,4.5,5.5c1.2,5,1.7,10.2,1.7,15.4c0,3.6-0.4,7.3-2,10.6
		C136.3,47.7,133.3,50.4,129.8,51z M132.3,20.6c-1.3,0.4-2.7,0.5-3.5,1.2c-2.8,2.7-6,5.3-8,8.6c-1.4,2.3-1,5.6-1.4,8.4
		c-0.3,2.3-0.7,4.5-0.9,6.8c-0.1,0.9-0.3,2.1,0.6,2.5c3.1-1.2,5.9-2.5,8.8-3.4c3.9-1.3,5.8-3.9,5.8-7.9c0-4.6-0.2-9.1-0.4-13.7
		C133.3,22.4,132.8,21.7,132.3,20.6z"/>
	<path class="st0" d="M105.2,16c0.4,0.3,0.7,0.6,1,0.9c0.5,0.8,0.6,1.8,0.6,2.8c0.4,21.4-1.7,42.8-5.7,63.8c-0.9,4.7-2.1,9.8-5.7,13
		c-4.2,3.6-11.2,3.4-15.2-0.5c-4.5-4.5-4.4-11.7-3.9-18c1-11.9,2.4-23.8,4.3-35.6c1.3-8.2,1.1-24.7,10.5-28.3c4.2-1.6,9-0.7,13,1.2
		C104.5,15.5,104.9,15.7,105.2,16z M99.9,19.5c-1.7-0.3-3.1-0.6-4.5-0.7c-2.8-0.3-3.6,0.1-4.8,2.8c-1.7,4-3,8.2-3.4,12.6
		c-0.2,2.3,0,4.6-0.5,6.8c-2.8,10.5-2.7,21.4-4.2,32c-0.5,3.9-0.3,7.9-0.2,11.8c0.1,4,1.6,7.3,5.6,8.8c3.4-0.3,5.4-2.1,6.2-5.3
		c0.8-3,1.8-6,2.4-9c2.7-14.1,4.2-28.3,5-42.6c0.3-4.1-0.2-8.3-0.5-12.4C100.9,22.7,100.3,21.1,99.9,19.5z"/>
	<path class="st0" d="M25.8,20.6c-0.5,0.8-0.7,1.7-0.9,2.7c-1,4.6-0.7,9.5,0.8,14c2,5.9,5.9,10.9,8.1,16.7C37.1,63,36,73,34,82.5
		c-1.2,5.8-2.9,11.9-7.3,15.8c-3.2,2.9-8.5,4.1-11.8,1.3c-3.3-2.8-3.1-7.8-2.6-12c0.5-4,0.9-8,1.4-11.9c0.2-1.5,0.6-3.2,2-3.7
		c1.3-0.4,2.6,0.6,3.1,1.8c0.5,1.2,0.3,2.6,0.2,3.9c-0.6,4.7-1.1,9.4-1.7,14.1c-0.1,1.1-0.2,2.2,0.3,3.2c0.8,1.3,2.8,1.5,4.2,0.7
		c1.4-0.8,2.3-2.2,3-3.5C31.4,80,32,64.9,26.4,52.3c-2-4.4-4.6-8.5-6.2-13.1c-1.9-5.4-3.4-16.2,0.1-21.3c4-5.7,15.5-5.7,21.4-4
		c2,0.6,4.2,1.6,5.1,3.5c0.8,1.6,0.6,3.4,0.4,5.1c-0.4,3.1-0.8,6.2-1.3,9.3c-0.2,1.1-0.4,2.4-1.3,3.1c-1.5,1.2-3.9-0.2-4.5-2
		c-0.6-1.8,0.1-3.8,0.8-5.6c0.7-1.8,1.5-3.7,1.1-5.5c-0.5-2.4-2.8-4.1-5.2-4.6c-2.4-0.5-4.9,0.1-7.2,0.9c-1.3,0.4-2.5,0.9-3.4,2
		C26.1,20.2,25.9,20.4,25.8,20.6z"/>
	<path class="st0" d="M199.9,63.9c0.2,6.2-1.1,12.4-3.8,17.9c-1,2.1-2.4,4.2-4.7,4.9c-3.2,0.9-6.5-1.8-7.9-4.9
		c-1.7-3.7-1.8-8.2-0.3-12c0.6-1.6,1.9-3.2,3.6-3c1.9,0.2,2.6,2.7,2.3,4.5s-1.4,3.6-1.3,5.5c0.1,1.9,2.1,3.9,3.7,2.9
		c0.9-0.5,1.2-1.7,1.4-2.7c1.7-8.2,3.3-17.1-0.1-24.7c-1.6-3.6-4.2-6.7-5.8-10.2c-3-6.5-5.8-24.4,3.7-26.7c2.5-0.6,5.1-0.3,7.7,0
		c0.9,0.1,1.9,0.2,2.5,0.8c0.8,0.7,1,2,1,3.1c0.2,3.5-0.1,7-0.8,10.4c-0.2,0.8-0.4,1.7-1.1,2.3c-1.5,1.1-3.7-0.5-4-2.4
		c-0.3-1.8,0.4-3.7,0.5-5.5s-1-4.1-2.9-4c-1.4,0.1-2.4,1.4-3,2.7c-2,4.9-1.1,10.5,0.8,15.5c1.9,4.9,4.7,9.5,6.4,14.5
		C199.1,56.3,199.8,60.1,199.9,63.9z"/>
	<path class="st0" d="M179.8,20.6c-1.9-0.3-3.3-0.7-4.6-0.7c-2.4,0-3.7,1.1-4.5,3.5c-0.1,0.4-0.3,0.8-0.4,1.2
		c-0.6,7.9-1.3,15.7-1.8,23.6c0,0.4,0.2,0.8,0.5,1.5c1.6,0.3,3.4,0.6,5.1,1.1c0.4,0.1,0.9,0.9,0.9,1.5c0,0.5-0.3,1.2-0.7,1.5
		c-0.6,0.5-1.5,0.8-2.2,1c-3.2,0.7-4.5,2.8-4.6,5.8c-0.1,5.6-0.2,11.2-0.1,16.8c0,2.5,0.7,4.9,2.1,7c3.4,0.3,7.1-1.9,10,1.4
		c-0.2,0.5-0.3,1.1-0.6,1.2c-3.8,1.7-7.6,3.4-11.4,5c-1.3,0.5-2.8,0.8-4.4,1.2c-0.6-1-1.4-1.8-1.6-2.7c-0.3-2.2-0.5-4.6-0.4-6.8
		c0.5-9.9,1.1-19.8,1.8-29.8c0.5-6.6,1.3-13.2,1.8-19.9c0.4-5.4,0.4-10.8,0.5-16.2c0.1-2.6,1.4-4.1,3.9-3.3c1.9,0.6,3.6,0.7,5.5,0.6
		c1,0,2.2-0.1,3.1,0.3c0.9,0.4,1.8,1.1,2.2,2C180.1,18.2,179.8,19.3,179.8,20.6z"/>
	<path class="st0" d="M59.6,35.2c-1.9,1.1-3.8,2.2-6,2.4c-1.2,0.1-4.7-0.6-4.7-2.3c-0.1-1.9,4.3-3.2,5.7-4
		c5.5-2.8,11.2-5.2,16.9-7.4c1.9-0.7,4.4-1.2,5.6,0.4c1.3,1.7-0.4,4.2-2.3,5.1c-2,0.9-4.2,0.9-6.1,2c-3.7,2.2-4,7.3-4,11.6
		c0.1,14.9-1.2,29.9-3.8,44.6c-0.4,2.4-1.8,5.5-4.2,5c-2.5-0.4-2.6-4-2.1-6.4C58.1,69.3,59.8,52.2,59.6,35.2z"/>
	<path class="st0" d="M141.2,97c-0.3-1.2-0.2-2.6-0.1-3.9c2.4-25.6,4.8-51.2,7.2-76.7c0.1-1.1,0.3-2.3,1.2-2.8
		c1.1-0.6,2.5,0.1,3.1,1.1s0.6,2.4,0.5,3.6c-0.8,15.2-2.8,30.4-3.8,45.7c-0.7,10.3-1.3,20.6-2,31c-0.1,1.9-0.6,4.1-2.3,4.7
		c-1.4,0.4-3-0.7-3.6-2.1C141.3,97.4,141.3,97.2,141.2,97z"/>
</g>
</svg>
