<?xml version="1.0" encoding="utf-8"?>
<!-- Generator: Adobe Illustrator 25.0.0, SVG Export Plug-In . SVG Version: 6.00 Build 0)  -->
<svg version="1.1" id="Layer_1" xmlns="http://www.w3.org/2000/svg" xmlns:xlink="http://www.w3.org/1999/xlink" x="0px" y="0px"
	 viewBox="0 0 216 59.3" style="enable-background:new 0 0 216 59.3;" xml:space="preserve">
<style type="text/css">
	.st0{fill:#FFFFFF;}
</style>
<g>
	<path class="st0" d="M20.6,16.8c0.9-0.8,2.6-1.7,3.6-2.2l0.2,0.2c-0.2,1.4-1.5,6.1-2.4,8.5l-0.2,0.2c-0.7-1.7-1.3-4.4-1.6-5.5
		c-1.3-1.1-4.1-1.7-6.4-1.7c-5.4,0-8.6,4-8.6,8.3c0,2.9,1.1,5.3,4.2,7.2c2.9,1.7,6.1,3.3,9.3,5.1c6.1,3.4,7.2,7,7.2,10
		c0,10.2-9,12.5-14.3,12.5c-5.7-0.1-10.5-3-11.6-4.1c0.3-1.5,2.1-6.3,2.7-7.6h0.2c0.2,1.1,0.5,2.4,1.3,8.7c0.7,0.3,3.3,1.3,6.8,1.2
		c6.8-0.2,10.5-3.6,10.5-9.5c0-2.7-1.5-5.1-5.6-7.4c-2.6-1.5-5.9-3.1-9-5c-4.5-2.9-5.6-6.4-5.6-9.9c0-5.5,4.3-11.4,12.1-11.4
		C16.4,14.3,19,15.5,20.6,16.8z"/>
	<path class="st0" d="M46.1,30.3L45,31.6l-8.5,0.8c0,3.7,0,11.5,0,21.1c0,0.7,0.7,1.6,1.1,2c0.7,0.5,1.7,1,3.3,1
		c2.3,0,4-0.9,5.1-1.7l0.2,0.2L46,55.9c-1.4,1.8-3.6,3.1-6.7,3.1c-2,0-4.2-1.1-5.5-2.6c-1.1-1.4-1.4-2.9-1.4-6.9V32.3l-4.2-0.8
		l1-1.2h3.3c0.2-1.4,0.5-3.9,1.1-6.8c0.5-1.1,2.3-2.4,3.2-2.4l-0.2,9.2L46.1,30.3L46.1,30.3z"/>
	<path class="st0" d="M75.7,43.9c0,9.1-6.2,15-14.2,15c-6.4,0-13.7-5.2-13.7-14.3c0-9.9,7.7-15.2,13.9-15.2
		C69.4,29.4,75.7,35.3,75.7,43.9z M52.7,44.1c0,6.7,3.7,13.8,9.7,13.8c6.2,0,8.6-6.8,8.6-13.4s-3.3-14-9-14
		C55.5,30.6,52.7,37.9,52.7,44.1z"/>
	<path class="st0" d="M80.5,31.4c1-0.4,4.7-2,6.2-2c0.3,0.9,0.7,4.3,0.7,7h0.1c3.2-5.9,7.3-7,9.3-7c1,0,1.7,0.2,2.4,0.6
		c0,0.8-0.6,3.9-1.5,6.2l-0.2,0.2c-0.6-0.7-1.4-2.3-2-4.5c-0.2-0.1-0.4-0.2-0.9-0.2c-2.4,0-4.8,2.6-6.8,6.9v17.3l5.9,2v0.3
		c-1.2-0.1-4.6-0.2-8.7-0.2c-1.6,0-4.7,0.2-5.5,0.2v-0.2l3.7-2c0.5-10.6,0.5-18.6,0.5-22.2l-3.3-2.1L80.5,31.4z"/>
	<path class="st0" d="M103,31.2c1.1-0.3,3.6-1.3,7.1-1.7v12.8c0,7.1,0.2,11.2,0.2,13.7l4.3,2l-0.2,0.2c-1.8-0.1-4.2-0.2-6.4-0.2
		c-1.9,0-3.6,0.2-6,0.2l0.2-0.2l3.7-2c0.2-3.5,0.2-8.8,0.2-13.8v-9.1l-3.3-1.5L103,31.2z M108.4,16.2c0.7,0.2,2,1.7,2.4,2.6
		l-0.2,0.5c-0.4,0.8-1.9,2.2-2.5,2.6l-0.4,0.2c-0.8-0.5-1.9-1.8-2.3-2.7l0.1-0.4c0.7-1.1,1.7-2.2,2.5-2.7L108.4,16.2z"/>
	<path class="st0" d="M122.1,42.1c-0.2,0.6-0.2,1.1-0.2,1.7c0,8.6,5.3,13.1,11.5,13.1c0.7,0,1.1-0.1,1.9-0.2c2.3-1.8,3.9-3.1,5-3.7
		l0.2,0.2c-0.4,1.3-2.1,3.6-2.8,4.1c-1.5,0.8-5.2,1.8-7.1,1.8c-7.6,0-13.1-5.8-13.1-14c0-9.4,6.8-15.6,13.7-15.6
		c5.6,0,10.2,4.2,10.2,10.2c0,1-0.2,1.4-0.7,1.7c-0.6,0.2-2.9,0.8-5.7,0.8C135,42.1,122.1,42.1,122.1,42.1z M136.5,40.7
		c0.2-0.2,0.4-1.4,0.4-2.4c0-2.9-1.7-7.7-6.1-7.7c-6.4,0-8.6,7.6-8.7,10.1H136.5z"/>
	<path class="st0" d="M159.1,31c1.1-0.7,2.4-1.4,3.2-1.6l0.2,0.2c0,0.7-0.7,5.6-1.4,6.9l-0.2,0.2c-0.9-1.5-1.9-4-2.2-4.6
		c-0.4-0.2-1.3-1.1-3.8-1.1c-3.3,0-5.4,2.5-5.4,5.1c0,1.7,0.6,3.2,2.7,4.2c2.4,1.1,4.3,2,5.9,2.7c3.5,1.5,5.7,3.6,5.7,7.3
		c0,6-6.1,8.4-10,8.4c-3.3,0-7.1-1.5-8.9-2.9c0.1-1.3,1.4-5.3,1.7-6.3l0.2-0.2c0.8,1.7,1.8,6.1,2.3,7.2c0.7,0.4,2.3,0.7,4.1,0.7
		c3.2,0,6.4-2.3,6.4-5.6c0-1.9-0.7-3.4-2.9-4.5c-1.4-0.7-3.2-1.6-5.6-2.7c-3.2-1.5-5.3-3.6-5.3-7.3c0-4.2,3.6-7.8,8.7-7.8
		C156.2,29.4,157.8,30,159.1,31z"/>
</g>
</svg>
