<?xml version="1.0" encoding="utf-8"?>
<!-- Generator: Adobe Illustrator 20.0.0, SVG Export Plug-In . SVG Version: 6.00 Build 0)  -->
<svg version="1.1" id="Layer_1" xmlns="http://www.w3.org/2000/svg" xmlns:xlink="http://www.w3.org/1999/xlink" x="0px" y="0px"
	 viewBox="0 0 216 100.4" style="enable-background:new 0 0 216 100.4;" xml:space="preserve">
<style type="text/css">
	.st0{fill:#A8C837;}
</style>
<g>
	<path class="st0" d="M133.9,43.3h-0.1c4,12.5,4.4,26.1,1.4,38.9c-0.2,0.9-0.5,1.8-1.1,2.5c-1.8,1.9-5.3,0.2-6.1-2.4
		c-0.8-2.5,0.2-5.2,1-7.7c3.5-11,2.6-25-6.8-31.8c-3.1,13.8-4.8,27.9-5.2,41.9c-0.1,2-0.5,4.7-2.4,5.3c-1.6,0.6-3.4-0.7-4.1-2.3
		c-0.7-1.6-0.5-3.4-0.3-5.1c1.6-14.6,3.2-29.2,4.7-43.8c0.8-7,1.5-14.2,2.3-21.3c0.5-3.9-0.8-17.7,6.4-14.7c0.2,1.8,0.7,3.5,1.6,5.1
		c3.2-2.2,6.4-4.3,9.4-6.5c1.1-0.8,2.5-1.7,3.9-1.6c2.8,0.1,4.4,3.4,5.1,6.3c1.4,5.7,1.9,11.6,1.9,17.5c0,4.1-0.5,8.3-2.3,12
		C141.3,39.6,137.9,42.6,133.9,43.3z M136.7,8.8c-1.5,0.5-3.1,0.6-4,1.4c-3.2,3.1-6.8,6-9.1,9.8c-1.6,2.6-1.1,6.4-1.6,9.5
		c-0.3,2.6-0.8,5.1-1,7.7c-0.1,1-0.3,2.4,0.7,2.8c3.5-1.4,6.7-2.8,10-3.9c4.4-1.5,6.6-4.4,6.6-9c0-5.2-0.2-10.3-0.5-15.6
		C137.9,10.8,137.3,10,136.7,8.8z"/>
	<path class="st0" d="M105.9,3.5c0.5,0.3,0.8,0.7,1.1,1c0.6,0.9,0.7,2,0.7,3.2c0.5,24.3-1.9,48.7-6.5,72.5c-1,5.3-2.4,11.1-6.5,14.8
		c-4.8,4.1-12.7,3.9-17.3-0.6c-5.1-5.1-5-13.3-4.4-20.5C74.2,60.5,75.8,47,78,33.5c1.5-9.3,1.3-28.1,11.9-32.2
		c4.8-1.8,10.2-0.8,14.8,1.4C105.1,3,105.6,3.2,105.9,3.5z M99.9,7.5c-1.9-0.3-3.5-0.7-5.1-0.8c-3.2-0.3-4.1,0.1-5.5,3.2
		c-1.9,4.5-3.4,9.3-3.9,14.3c-0.2,2.6,0,5.2-0.6,7.7c-3.2,11.9-3.1,24.3-4.8,36.4c-0.6,4.4-0.3,9-0.2,13.4c0.1,4.5,1.8,8.3,6.4,10
		c3.9-0.3,6.1-2.4,7-6c0.9-3.4,2-6.8,2.7-10.2c3.1-16,4.8-32.2,5.7-48.4c0.3-4.7-0.2-9.4-0.6-14.1C101,11.1,100.4,9.3,99.9,7.5z"/>
	<path class="st0" d="M15.7,8.8c-0.6,0.9-0.8,1.9-1,3.1c-1.1,5.2-0.8,10.8,0.9,15.9c2.3,6.7,6.7,12.4,9.2,19
		C28.5,57,27.3,68.3,25,79.1c-1.4,6.6-3.3,13.5-8.3,18c-3.6,3.3-9.7,4.7-13.4,1.5c-3.8-3.2-3.5-8.9-3-13.6c0.6-4.5,1-9.1,1.6-13.5
		c0.2-1.7,0.7-3.6,2.3-4.2c1.5-0.5,3,0.7,3.5,2c0.6,1.4,0.3,3,0.2,4.4C7.3,79,6.7,84.4,6,89.7c-0.1,1.3-0.2,2.5,0.3,3.6
		c0.9,1.5,3.2,1.7,4.8,0.8s2.6-2.5,3.4-4c7.5-13.9,8.2-31,1.8-45.4c-2.3-5-5.2-9.7-7-14.9C7.1,23.8,5.4,11.5,9.4,5.7
		C14-0.8,27-0.8,33.7,1.1c2.3,0.7,4.8,1.8,5.8,4c0.9,1.8,0.7,3.9,0.5,5.8c-0.5,3.5-0.9,7-1.5,10.6c-0.2,1.3-0.5,2.7-1.5,3.5
		c-1.7,1.4-4.4-0.2-5.1-2.3c-0.7-2,0.1-4.3,0.9-6.4c0.8-2,1.7-4.2,1.3-6.3c-0.6-2.7-3.2-4.7-5.9-5.2S22.6,5,20,5.9
		c-1.5,0.5-2.8,1-3.9,2.3C16,8.3,15.8,8.5,15.7,8.8z"/>
	<path class="st0" d="M213.6,58c0.2,7-1.3,14.1-4.3,20.3c-1.1,2.4-2.7,4.8-5.3,5.6c-3.6,1-7.4-2-9-5.6c-1.9-4.2-2-9.3-0.3-13.6
		c0.7-1.8,2.2-3.6,4.1-3.4c2.2,0.2,3,3.1,2.6,5.1c-0.3,2-1.6,4.1-1.5,6.3c0.1,2.2,2.4,4.4,4.2,3.3c1-0.6,1.4-1.9,1.6-3.1
		c1.9-9.3,3.8-19.4-0.1-28.1c-1.8-4.1-4.8-7.6-6.6-11.6c-3.4-7.4-6.6-27.7,4.2-30.4c2.8-0.7,5.8-0.3,8.8,0c1,0.1,2.2,0.2,2.8,0.9
		c0.9,0.8,1.1,2.3,1.1,3.5c0.2,4-0.1,8-0.9,11.8c-0.2,0.9-0.5,1.9-1.3,2.6c-1.7,1.3-4.2-0.6-4.5-2.7c-0.3-2,0.5-4.2,0.6-6.3
		c0.1-2-1.1-4.7-3.3-4.5c-1.6,0.1-2.7,1.6-3.4,3.1c-2.3,5.6-1.3,11.9,0.9,17.6c2.2,5.6,5.3,10.8,7.3,16.5
		C212.7,49.3,213.5,53.7,213.6,58z"/>
	<path class="st0" d="M190.7,8.8C188.6,8.4,187,8,185.5,8c-2.7,0-4.2,1.3-5.1,4c-0.1,0.5-0.3,0.9-0.5,1.4c-0.7,9-1.5,17.8-2,26.8
		c0,0.5,0.2,0.9,0.6,1.7c1.8,0.3,3.9,0.7,5.8,1.3c0.5,0.1,1,1,1,1.7c0,0.6-0.3,1.4-0.8,1.7c-0.7,0.6-1.7,0.9-2.5,1.1
		c-3.6,0.8-5.1,3.2-5.2,6.6c-0.1,6.4-0.2,12.7-0.1,19.1c0,2.8,0.8,5.6,2.4,8c3.9,0.3,8.1-2.2,11.4,1.6c-0.2,0.6-0.3,1.3-0.7,1.4
		c-4.3,1.9-8.6,3.9-13,5.7c-1.5,0.6-3.2,0.9-5,1.4c-0.7-1.1-1.6-2-1.8-3.1c-0.3-2.5-0.6-5.2-0.5-7.7c0.6-11.3,1.3-22.5,2-33.9
		c0.6-7.5,1.5-15,2-22.6c0.5-6.1,0.5-12.3,0.6-18.4c0.1-3,1.6-4.7,4.4-3.8c2.2,0.7,4.1,0.8,6.3,0.7c1.1,0,2.5-0.1,3.5,0.3
		c1,0.5,2,1.3,2.5,2.3C191.1,6,190.7,7.3,190.7,8.8z"/>
	<path class="st0" d="M54.1,25.4c-2.2,1.3-4.3,2.5-6.8,2.7c-1.4,0.1-5.3-0.7-5.3-2.6c-0.1-2.2,4.9-3.6,6.5-4.5
		c6.3-3.2,12.7-5.9,19.2-8.4c2.2-0.8,5-1.4,6.4,0.5c1.5,1.9-0.5,4.8-2.6,5.8c-2.3,1-4.8,1-6.9,2.3c-4.2,2.5-4.5,8.3-4.5,13.2
		c0.1,16.9-1.4,34-4.3,50.7c-0.5,2.7-2,6.3-4.8,5.7c-2.8-0.5-3-4.5-2.4-7.3C52.4,64.1,54.3,44.7,54.1,25.4z"/>
	<path class="st0" d="M146.9,95.6c-0.3-1.4-0.2-3-0.1-4.4c2.7-29.1,5.5-58.2,8.2-87.2c0.1-1.3,0.3-2.6,1.4-3.2
		c1.3-0.7,2.8,0.1,3.5,1.3s0.7,2.7,0.6,4.1c-0.9,17.3-3.2,34.6-4.3,52c-0.8,11.7-1.5,23.4-2.3,35.2c-0.1,2.2-0.7,4.7-2.6,5.3
		c-1.6,0.5-3.4-0.8-4.1-2.4C147,96.1,147,95.8,146.9,95.6z"/>
</g>
</svg>
