<?xml version="1.0" encoding="utf-8"?>
<!-- Generator: Adobe Illustrator 24.2.0, SVG Export Plug-In . SVG Version: 6.00 Build 0)  -->
<svg version="1.1" id="Layer_1" xmlns="http://www.w3.org/2000/svg" xmlns:xlink="http://www.w3.org/1999/xlink" x="0px" y="0px"
	 viewBox="0 0 43.3 53.8" style="enable-background:new 0 0 43.3 53.8;" xml:space="preserve">
<style type="text/css">
	.st0{opacity:0.3;fill:#D9D8D6;enable-background:new    ;}
</style>
<path class="st0" d="M24.3,37.6c-0.3-0.2-0.7-0.2-1-0.2c-6.3-0.6-12.6-3.7-15.8-9.1c-0.8-1.3-1.4-2.8-1.4-4.4c0-1.5,0.6-2.9,1.2-4.1
	c1.2-2.2,2.8-4.3,4.9-5.7c2-1.4,4.4-2.1,6.8-2.7c1.2-0.3,2.5-0.5,3.8-0.5c1.6,0.1,3.1,0.6,4.5,1.3c3.2,1.5,6.2,3.7,8.3,6.5
	c1,1.2,1.8,2.7,2.1,4.2c0.3,1.4-0.1,2.7-0.3,4c-0.3,2.8-1.8,5.4-4.1,7c-0.6,0.4-1.3,0.8-1.5,1.5c-0.1,0.3-0.1,0.7-0.1,1
	c0.1,2,0.6,4,1.5,5.7c0.4,0.8,0.9,2,0.1,2.6c-0.5,0.4-1.2,0.2-1.7,0c-1.5-0.5-2.8-1.4-3.9-2.5s-1.9-2.4-2.6-3.7
	C25,38.3,24.7,37.9,24.3,37.6C24.4,37.6,24.3,37.6,24.3,37.6z M26.4,36c1,1.8,3,5.5,4,5.5c0.5,0-0.5-2.7-0.8-4
	c-0.3-1.1-0.6-2.4,0-3.4c0.3-0.6,1-1,1.6-1.3c4.3-2.6,5.2-8.3,3-12.6c-1.1-2-2.7-3.6-4.6-4.9c-2-1.3-4.3-2.3-6.7-2.5
	c-3.5-0.3-7.1,0.8-10.1,2.8c-1.5,1-2.9,2.3-3.8,3.8c-1,1.5-1.5,3.4-1.2,5.2c0.3,2,1.5,3.7,2.9,5.2c2.7,2.8,6.1,4.8,9.9,5.6
	c1.4,0.3,2.8,0.5,4.1,0c0.3-0.1,0.6-0.3,0.9-0.2c0.1,0,0.3,0.1,0.4,0.2S26.3,35.7,26.4,36z"/>
</svg>
