<?xml version="1.0" encoding="utf-8"?>
<!-- Generator: Adobe Illustrator 23.0.1, SVG Export Plug-In . SVG Version: 6.00 Build 0)  -->
<svg version="1.1" id="Layer_1" xmlns="http://www.w3.org/2000/svg" xmlns:xlink="http://www.w3.org/1999/xlink" x="0px" y="0px"
	 viewBox="0 0 216 216" style="enable-background:new 0 0 216 216;" xml:space="preserve">
<style type="text/css">
	.st0{fill:#3F3D3C;}
</style>
<path class="st0" d="M94.1,167.2c-1.4,0.1-2.9,0.1-4.3,0c-12.3-0.9-22.6-6.6-27.2-18.1c-1.2-3-1.9-6.6-4.4-8.6
	c-1.6-1.3-3.7-1.8-5.7-2.4c-12.3-3.9-22.5-13-29.5-23.8C6.1,88.5-1.9,43.8,31.8,26.9c9-4.5,19.4-5.4,29.4-5.1
	c17.2,0.6,36.1,5.9,44.7,20.7c3.7,6.4,5.1,13.8,6.4,21c3.2,17.5,6.4,35.6,2.6,53c-1.7,7.6-4.8,15.2-10.6,20.3
	c-3.9,3.5-7.8,4.7-12.8,6.4c-0.8,0.3-1.8,0.6-2.2,1.4c-0.5,0.9-0.2,2,0.3,2.9c3,6.2,8.3,11.4,10.3,12.8s0.6,4.8-1.9,5.9
	C96.8,166.7,95.5,167,94.1,167.2z M85,151.5c-1.5-2.3-2.9-4.6-4.3-6.9c-0.5-0.9-1-1.8-0.9-2.8c0.2-2.9,4.2-3.3,7.1-3.5
	c7.5-0.5,14.1-5.7,17.9-12.2s5.1-14.2,5.4-21.7c0.7-13.1-1.2-26.1-3.7-39c-1.6-8.3-3.6-16.9-8.9-23.6c-7-8.8-18.7-12.7-30-14.2
	c-7-1-14.3-1.3-21.2,0.2C35.6,30.1,25.9,37,20.1,46.4c-12.4,20.1-3.6,47.7,9,65.7c7.1,10,17.3,18.2,29.2,21.1
	c3.2,0.8,6.8,1.5,8.4,4.3c0.7,1.3,0.8,2.8,1,4.3c1.7,10.9,12.7,19.4,23.6,18.3C89.1,157.3,87,154.5,85,151.5z"/>
<path class="st0" d="M156.5,186.6c-1,0.7-1.6,1.8-2.2,2.9c-2.1,3.9-4.5,7.6-7.6,10.7c-3.2,3.2-7.1,5.7-11.4,7.2
	c-1.6,0.6-3.7,1-5-0.1c-2.1-1.7-0.9-5.1,0.4-7.5c2.6-5.2,4.1-10.9,4.4-16.7c0.1-1,0.1-2-0.3-3c-0.7-2-2.6-3.1-4.3-4.3
	c-6.6-4.6-11.1-12.3-12-20.3c-0.5-3.9-1.6-7.8-0.8-11.8c0.9-4.5,3.3-8.7,6-12.3c6.3-8.2,14.9-14.6,24.3-18.9
	c4.1-1.9,8.5-3.4,13.1-3.6c3.7-0.2,7.4,0.5,11.1,1.4c6.9,1.6,13.9,3.7,19.8,7.7c6,4.1,10.7,10,14.1,16.5c2,3.7,3.6,7.8,3.6,12.1
	c0,4.5-1.7,8.8-4,12.7c-9.3,15.8-27.7,24.6-45.9,26.4c-1,0.1-2.1,0.2-3,0.7C156.6,186.5,156.5,186.6,156.5,186.6z M152,180
	c0.3-0.2,0.7-0.4,1.1-0.5c0.9-0.2,1.8,0.3,2.7,0.6c3.8,1.4,8,1,12,0.1c10.9-2.5,21.1-8.2,28.8-16.3c4-4.2,7.5-9.3,8.3-15.1
	c0.7-5.2-0.8-10.6-3.5-15c-2.8-4.5-6.7-8.1-11.1-11c-8.6-5.8-19-9.3-29.3-8.3c-7,0.7-13.6,3.4-19.4,7.2c-5.5,3.7-10.3,8.4-13.4,14.3
	c-6.6,12.4-3.9,29,8.6,36.6c1.8,1.1,3.8,2,4.8,3.8c1.5,2.8,0.7,6.8-0.1,9.9c-1,3.6-3.9,11.5-2.3,11.5c2.9,0,8.7-10.7,11.6-16
	C150.9,181.2,151.4,180.5,152,180z"/>
</svg>
