<?xml version="1.0" encoding="utf-8"?>
<!-- Generator: Adobe Illustrator 23.0.1, SVG Export Plug-In . SVG Version: 6.00 Build 0)  -->
<svg version="1.1" xmlns="http://www.w3.org/2000/svg" xmlns:xlink="http://www.w3.org/1999/xlink" x="0px" y="0px"
	 viewBox="0 0 43.3 53.8" style="enable-background:new 0 0 43.3 53.8;" xml:space="preserve">
<style type="text/css">
	.st0{fill:#3F3D3C;}
</style>
<g id="Layer_1">
	<path class="st0" d="M9.6,50.9c-0.8-0.4-1.5-1.3-1.4-2.2c2.1-0.7,4.4-1.6,5.4-3.6c0.1-0.3,0.3-0.6,0.1-0.9
		c-0.1-0.3-0.4-0.4-0.7-0.4c-1.6-0.5-3.2-1.3-4.5-2.4c-1.9-1.7-2.9-4.1-3.5-6.6c-1.2-5.7-0.2-11.5,0.9-17.2c0.4-2.4,0.9-4.8,2.1-6.8
		c2.8-4.8,9-6.5,14.6-6.7c3.3-0.1,6.6,0.2,9.6,1.7c11,5.5,8.4,20,2.9,28.4c-2.3,3.5-5.6,6.5-9.6,7.7c-0.6,0.2-1.3,0.4-1.8,0.8
		c-0.8,0.7-1,1.8-1.4,2.8c-1.5,3.7-5.8,5.6-9.8,5.9c-0.5,0-0.9,0.1-1.4,0C10.4,51.2,10,51.1,9.6,50.9z M12.7,49
		c3.6,0.4,7.1-2.4,7.7-5.9c0.1-0.5,0.1-1,0.3-1.4c0.5-0.9,1.7-1.2,2.7-1.4c3.9-0.9,7.2-3.6,9.5-6.9c4.1-5.8,6.9-14.8,2.9-21.4
		c-1.9-3.1-5-5.3-8.5-6.1c-2.3-0.5-4.6-0.4-6.9-0.1c-3.7,0.5-7.5,1.8-9.8,4.7c-1.7,2.2-2.4,5-2.9,7.7C7,22.3,6.4,26.6,6.6,30.8
		c0.1,2.4,0.5,4.9,1.8,7c1.2,2.1,3.4,3.8,5.8,4c0.9,0.1,2.3,0.2,2.3,1.1c0,0.3-0.1,0.6-0.3,0.9c-0.4,0.8-0.9,1.5-1.4,2.3
		C14.2,47.1,13.5,48.1,12.7,49z"/>
</g>
<g id="Isolation_Mode">
</g>
</svg>
