<?xml version="1.0" encoding="utf-8"?>
<!-- Generator: Adobe Illustrator 20.0.0, SVG Export Plug-In . SVG Version: 6.00 Build 0)  -->
<svg version="1.1" id="Layer_1" xmlns="http://www.w3.org/2000/svg" xmlns:xlink="http://www.w3.org/1999/xlink" x="0px" y="0px"
	 viewBox="0 0 216 216" style="enable-background:new 0 0 216 216;" xml:space="preserve">
<style type="text/css">
	.st0{fill:#831C54;}
</style>
<g>
	<path class="st0" d="M150.5,110.7c-10.9,6.6-20.9,12.8-31,18.8c-1.8,1.1-3.7,2.1-5.6,3c-6.5,3.2-12.7,6.9-18.4,11.4
		c-2.6,2-5.4,3.9-8.3,5.4c-2.9,1.5-6.3-0.6-6.6-3.9c-0.2-1.5-0.1-3,0.2-4.5c2.4-12.2,1.6-24.6,1.8-37c0.1-6.9,0.6-13.8,0.8-20.8
		c0.1-3,0.1-6,0.1-9c0-2.7,2-4.5,4.6-4.1c1.5,0.2,3,0.7,4.3,1.4c6.4,3.4,12.9,6.7,19,10.5c10.2,6.4,20.8,12,31.3,17.8
		c2.1,1.2,4.2,2.4,6.1,3.8C151.2,105.5,151.8,108.1,150.5,110.7z"/>
	<path class="st0" d="M103.3,199.8c-61.7-0.3-96.4-52-75-104.6c3.3-8.2,5.7-16.8,9.2-25c3.4-8.1,7.3-16.1,11.7-23.7
		c6.6-11.3,16.8-18.7,29.3-22.2c9.9-2.8,20-5.6,30.2-6.9c21.6-2.7,41,4.3,58.2,16.9c12.5,9.1,18.4,22.7,22.8,37.1
		c15.3,49.4-11.6,93.8-43.1,113.9C131.8,194.7,115.6,199.2,103.3,199.8z M95.7,183.2c14.4,0.2,28.3-2.8,40-11.1
		c20-14.3,33.3-33.8,39-57.7c4.1-17.2,1.4-34.4-6.9-49.6c-8.9-16.4-23.7-29.1-42.6-27.9c-20.6,1.3-43.7,0.2-59,19.4
		c-2.3,2.9-4.7,5.9-6.1,9.3c-6.3,15.8-14,31.3-18,47.7C35.5,141.6,48.7,182.5,95.7,183.2z"/>
</g>
</svg>
