<?xml version="1.0" encoding="utf-8"?>
<!-- Generator: Adobe Illustrator 24.2.0, SVG Export Plug-In . SVG Version: 6.00 Build 0)  -->
<svg version="1.1" id="Layer_1" xmlns="http://www.w3.org/2000/svg" xmlns:xlink="http://www.w3.org/1999/xlink" x="0px" y="0px"
	 viewBox="0 0 164.7 216" style="enable-background:new 0 0 164.7 216;" xml:space="preserve">
<style type="text/css">
	.st0{opacity:0.6;fill:#659FA1;enable-background:new    ;}
</style>
<path class="st0" d="M69.1,65.5c-0.6-0.9-1.7-1.6-2.8-2.1c-5.3-2.3-11.4-0.3-17.2-0.2c-5.8,0.2-12.9-3.1-12.6-8.9
	c0-0.8,0.3-1.7,0.9-2.2c0.6-0.6,1.6-0.7,2.4-0.8C50,50.2,60.1,49.1,70.3,48c2-0.2,4-0.5,5.8-1.5c2.3-1.4,3.7-3.9,4.9-6.3
	c5.9-11.7,11.8-23.4,17.7-35.1c0.6-1.1,1.2-2.3,2.3-3c2.5-1.5,5.8,0.8,6.5,3.6s-0.5,5.7-1.6,8.4c-4.6,10.7-9.1,21.3-13.7,32
	c7.6,1.9,15.6,2.7,23.5,2.2c1.8-0.1,3.8-0.3,5.3-1.4c1.8-1.2,2.7-3.4,3.5-5.4c4.1-10.6,8.3-21.1,12.4-31.7c1-2.5,2-5.1,3.9-7.1
	s4.9-3.1,7.4-2.1c2.9,1.2,4.2,4.8,3.8,7.9s-2.2,5.9-3.7,8.7c-5.2,9.4-8.5,19.8-9.7,30.5c6.7,1.2,13.5,2.4,20.2,3.7
	c1.7,0.3,3.6,0.7,4.9,2c2.3,2.4,0.9,6.6-1.8,8.5s-6.2,2-9.5,2.1c-5.5,0.1-11,0.2-16.5,0.3c-1.7,0-3.4,0.1-4.8,1.1
	c-1.2,0.9-1.9,2.3-2.5,3.7c-7.5,17.5-14.8,35.2-21.8,53c-2,5-4,10.2-4,15.6c0,0.9,0.1,2,0.7,2.7c0.6,0.8,1.7,1,2.7,1.2
	c4.5,0.6,9.2-0.5,13.6,0.8s8.2,6.4,5.8,10.2c-1.2,1.9-3.6,2.8-5.8,3.3c-5.3,1.3-10.8,1.8-16.2,1.4c-3.1-0.2-6.6-0.7-9.2,1.1
	c-1.5,1-2.4,2.6-3.3,4.2c-4.9,8.9-9.1,18.2-12.6,27.8c-2.6,7.4-4.9,15.1-9.7,21.2c-1.7,2.2-4,4.3-6.8,4.3c-3.7,0.1-6.6-3.7-6.9-7.4
	c-0.3-3.7,1.2-7.3,2.8-10.7c6.1-13.4,12.7-26.6,19.8-39.6c-4.9-3.7-11.6-3.9-17.7-3.5c-4.3,0.3-8.8,0.9-12.3,3.4
	c-5.1,3.6-7.1,10.1-8.9,16.1c-3,9.9-6.5,19.6-10.5,29c-1.7,4.1-3.8,8.4-7.7,10.5c-3.8,2-9.1,0.5-10.5-3.7c-1.6-4.6,2-12,3.8-16.2
	c4.7-10.7,11.9-20.3,15-31.7c0.3-1.1,0.6-2.4,0.2-3.4c-0.6-1.4-2.1-2.2-3.6-2.5c-3.5-0.8-7.2,0-10.7,0.6c-3.6,0.6-7.4,0.9-10.6-0.8
	s-5.1-6.2-3-9.1c1.5-2,4.2-2.6,6.6-3c5.5-0.9,11-1.5,16.5-1.8c4-0.2,8.2-0.3,11.7-2.2c4.7-2.6,7.2-8,9.3-13
	c8-18.8,15.9-37.5,23.9-56.3c0.5-1.3,1.1-2.6,0.8-3.9C69.5,66.3,69.3,65.9,69.1,65.5z M85.7,63.2c-3.5,7.7-7.5,15.8-10.9,24.1
	c-5.9,14.3-11.6,28.7-17,43.1c-1,2.7-0.6,5.9-0.8,9.5c9.3,1.1,17.6,2.3,26.9,0.4c6.5-15.5,13.2-31,19.6-46.6
	c3-7.4,5.7-14.9,8.5-22.4c0.7-1.9,0.8-4,1.2-5.9C101.1,60.5,100.5,60.5,85.7,63.2z"/>
</svg>
