<?xml version="1.0" encoding="utf-8"?>
<!-- Generator: Adobe Illustrator 20.0.0, SVG Export Plug-In . SVG Version: 6.00 Build 0)  -->
<svg version="1.1" id="Layer_1" xmlns="http://www.w3.org/2000/svg" xmlns:xlink="http://www.w3.org/1999/xlink" x="0px" y="0px"
	 viewBox="0 0 183.1 120.1" style="enable-background:new 0 0 183.1 120.1;" xml:space="preserve">
<style type="text/css">
	.st0{fill:#831C54;}
</style>
<g>
	<path class="st0" d="M143.8,66.1c-2.5,2-5,3.9-7.5,5.9c-0.9,0.7-1.7,1.4-2.4,2.2c-0.8,1.1-1.2,2.5-1.6,3.8
		c-2.5,8.5-4.2,17.3-5.2,26.1c-0.2,1.7-0.6,3.8-2.1,4.5c-1.7,0.8-3.8-0.6-4.4-2.4c-0.6-1.8-0.2-3.8,0.2-5.6
		c7.1-31.1,14.8-62,23.1-92.8c0.4-1.3,0.7-2.7,1.6-3.7c5.4-6.3,7.2,8.5,7.3,11.2c0.8,19.4-0.2,38.9-3,58.2
		c-1.4,10.1-3.4,20.2-3.2,30.5c0,1.7,0.1,3.5-0.7,5.1c-0.8,1.5-2.8,2.6-4.3,1.7c-1.5-0.9-1.6-3-1.5-4.7c0.5-8.3,1.4-16.5,2.8-24.7
		C143.7,76.5,144.7,71.2,143.8,66.1z M145.1,57.6c0.3-0.7,0.5-1.5,0.6-2.3c1.1-7.9,1.7-15.9,1.7-23.9c0-2.4,0.2-6.5-1.9-8
		c-2.6,6.2-3.6,13.7-5.1,20.2c-1.6,6.9-3.1,13.8-4.5,20.8c2.7-1.2,5.3-2.9,7.6-4.8c0.6-0.5,1.2-1.1,1.5-1.7
		C145,57.7,145,57.7,145.1,57.6z"/>
	<path class="st0" d="M42.5,88c0.8-21.5,2.4-43,7.4-63.8c0.8-3.2,1.6-6.5,3.4-9.3c2.2-3.4,6.8-7.3,11.1-7.3c3.9,0,9.4,3.5,11.2,6.9
		c1.5,2.8,1.3,6.1,1,9.3C75.1,39.5,70,54.5,67.1,70c-1.8,9.7-2.9,20-8.6,28.1c-1.6,2.2-3.5,4.3-6,5.4c-2.5,1.1-5.7,0.9-7.7-0.9
		c-2.5-2.2-2.6-6.1-2.5-9.4C42.4,91.4,42.5,89.7,42.5,88z M49.2,97.9c4.3-2.1,7.2-6.3,8.8-10.8c1.6-4.5,2.1-9.3,2.8-14
		c2.5-16.7,7.4-32.9,9.6-49.6c0.3-2.6,0.4-5.5-2-6.7c-1.9-0.9-6.8-1.7-8.6-0.5c-0.9,0.6-1.4,1.7-1.9,2.7c-2.1,4.7-3.2,9.7-4.2,14.8
		c-1.8,9.8-2.7,19.7-3.4,29.6C49.3,74.9,48.6,86.4,49.2,97.9z"/>
	<path class="st0" d="M35.1,5.5c-5-0.8-10,2.4-12.7,6.7c-2.7,4.3-3.5,9.6-3.7,14.7c-0.5,9.7,0.7,19.3,3,28.7
		c2.3,9.5,5.8,18.8,6.8,28.5c1.1,9.7-0.7,20.3-7.4,27.4c-2.3,2.5-5.1,4.4-8,6.3c-1.6,1.1-3.4,2.2-5.3,2.3c-3.7,0.1-6.5-3.5-7.4-7.2
		c-1-4.2-0.3-8.7,1-12.9c0.8-2.6,2.2-5.5,4.8-6.1c1.7,5.1-0.7,10.7-0.6,16c0,1.3,0.3,2.8,1.3,3.6c1.5,1.2,3.7,0.4,5.2-0.7
		c6.8-4.6,10.1-13.2,10.3-21.5s-2-16.3-4-24.3c-4-15.9-7-32.4-4.7-48.6c0.3-2.3,0.8-4.5,1.8-6.5c1.5-2.8,4.1-4.9,6.6-6.9
		c6-4.7,16.3-9.3,18,1.7c0.5,3.5,0.7,7,0.5,10.6c-0.1,1.5-0.5,3.5-2.1,3.8c-1,0.2-2-0.5-2.5-1.4c-0.5-0.9-0.6-1.9-0.6-2.9
		C35.4,13,35.3,9.3,35.1,5.5C35.1,5.5,35.1,5.5,35.1,5.5z"/>
	<path class="st0" d="M83.1,103.2c2.6-1.8,4.5-4.5,5.5-7.5c0.6-1.9,0.8-3.9,2-5.4c1.2-1.5,3.9-2.2,5-0.6c0.4,6-1.8,12.1-5.9,16.4
		c-2.5,2.7-6.3,4.8-9.7,3.5c-3.7-1.4-4.9-6-5.1-9.9c-0.3-5.4,0.2-10.9,0.7-16.3c1.2-11.2,2.4-22.5,3.9-33.7
		c2-15.8,4.7-32.5,15.2-44.5c1.9-2.2,5.5-4.8,8.6-3.2c2.9,1.5,3.1,6,3.1,8.9c0,2.6-0.4,5.9-2.9,6.7c-0.8-2.1-1.7-4.3-2.5-6.4
		c-0.2-0.4-0.3-0.8-0.7-1c-0.7-0.4-1.5,0.2-2.1,0.7c-4.7,4.7-6.9,11.3-8.6,17.8c-3.5,13.6-5,27.6-6.4,41.6C82,80,81,89.8,81.2,99.7
		C81.3,101.1,81.7,103,83.1,103.2z"/>
	<path class="st0" d="M166.8,94.8c0,0.1,0,0.1,0.1,0.2c4.5-3,9-6,13.5-9c0.8-0.6,2.1-1.1,2.8-0.4c0.7,0.7,0.1,2-0.5,2.8
		c-4.5,5.8-10.4,10.3-16.2,14.8c-1.8,1.4-4.2,2.8-6,1.5c-1.6-1.1-1.6-3.4-1.3-5.4c2.3-19.2,4.7-38.3,7-57.5c1.2-9.5,2.3-19,3.5-28.4
		c0.3-2.4,0.1-7.6,3.9-5.8c3.4,1.6,1.6,6.9,1.3,9.7c-2.6,22.2-5.2,44.4-7.8,66.7C166.4,87.5,166,91.2,166.8,94.8z"/>
	<path class="st0" d="M123.8,6.6c0,0.2,0,0.4,0,0.6c-2.7,28.8-5.4,57.6-8.3,86.3c-0.2,2.4-1.1,5.5-3.5,5.7c-1.6,0.1-3-1.2-3.5-2.8
		c-0.5-1.6-0.2-3.2,0.1-4.8c4.4-27.5,5.9-55.3,9.5-82.9c0.2-1.2,0.3-2.5,1.1-3.5C120.9,2.8,123.6,4.1,123.8,6.6z"/>
</g>
</svg>
