<?xml version="1.0" encoding="utf-8"?>
<!-- Generator: Adobe Illustrator 25.0.0, SVG Export Plug-In . SVG Version: 6.00 Build 0)  -->
<svg version="1.1" id="Layer_1" xmlns="http://www.w3.org/2000/svg" xmlns:xlink="http://www.w3.org/1999/xlink" x="0px" y="0px"
	 viewBox="0 0 183.1 60.4" style="enable-background:new 0 0 183.1 60.4;" xml:space="preserve">
<style type="text/css">
	.st0{fill:#FFFFFF;}
</style>
<g>
	<path class="st0" d="M19.3,20.5c0.8-0.7,2.5-1.6,3.3-2.1l0.1,0.1c-0.2,1.3-1.5,5.7-2.2,8l-0.2,0.1c-0.6-1.6-1.2-4.2-1.5-5.2
		c-1.2-1-3.9-1.6-6-1.6c-5.1,0.1-8,3.9-8,7.9c0,2.7,1,5,4,6.8c2.7,1.6,5.7,3.2,8.7,4.8c5.7,3.2,6.8,6.5,6.8,9.4
		c0,9.5-8.6,11.8-13.5,11.8c-5.2,0-9.7-2.8-10.9-3.8c0.3-1.4,2-5.9,2.5-7.1l0.2-0.1c0.2,1.1,0.4,2.2,1.2,8.2
		c0.6,0.3,3.1,1.2,6.4,1.2c6.3-0.1,9.9-3.3,9.9-8.9c0-2.5-1.5-4.8-5.3-7c-2.5-1.4-5.6-2.9-8.5-4.8c-4.2-2.7-5.3-6-5.3-9.3
		c0-5.3,4.1-10.9,11.5-10.9C15.4,18.1,17.9,19.2,19.3,20.5z"/>
	<path class="st0" d="M54.9,46c0,8.6-5.9,14.1-13.3,14.1c-6,0-12.9-4.9-12.9-13.5c0-9.2,7.3-14.3,13.1-14.3
		C48.9,32.4,54.9,37.9,54.9,46z M33.2,46.1c0,6.2,3.5,12.9,9.1,12.9c5.9,0,8-6.5,8-12.5c0-6.2-3-13.2-8.5-13.2
		C35.8,33.4,33.2,40.3,33.2,46.1z"/>
	<path class="st0" d="M73.9,32.4c3.3,0,6.6,1.5,7.4,2.2c-0.5,1.9-1.2,4.3-2.2,5.9l-0.1,0.1c-0.5-1.2-1.1-3.5-1.7-6.5
		c-0.5-0.2-1.3-0.4-2.8-0.4c-7.7,0-11.2,6-11.2,12.3c0,7.1,4.8,12.2,11.3,12.2c0.6,0,1.3-0.1,1.7-0.2c2.5-2.4,4-3.4,5.1-3.9l0.1,0.1
		c-0.5,1.6-2.8,4.5-3.6,4.9c-1,0.4-3.8,0.9-5.5,0.9c-4.9,0-13.3-3.3-13.3-13.8C59.2,37.1,66.6,32.4,73.9,32.4z"/>
	<path class="st0" d="M86.1,34c1-0.3,3.4-1.2,6.7-1.6v12c0,6.7,0.1,10.5,0.2,12.9l4.1,1.9l-0.2,0.2c-1.7-0.1-3.9-0.1-6.1-0.1
		c-1.8,0-3.4,0.1-5.7,0.1l0.1-0.2l3.5-1.9c0.1-3.3,0.2-8.3,0.2-13v-8.6l-3.2-1.4L86.1,34z M91,19.9c0.7,0.2,1.9,1.6,2.2,2.5
		l-0.1,0.4c-0.4,0.7-1.8,2.1-2.4,2.5l-0.4,0.1c-0.7-0.5-1.8-1.7-2.2-2.5l0.1-0.4c0.7-1,1.7-2.2,2.5-2.5L91,19.9z"/>
	<path class="st0" d="M114.3,43.5c-0.4-7.5-2.7-8.9-6.2-8.9c-1.2,0-2.8,0.5-4.2,1.3c0,1.5,0.1,3.3-0.2,5.9l-0.1,0.1
		c-0.5-0.1-3-2.8-3.6-4.6c1.2-1.1,5.2-3.2,6.5-3.8c1.7-0.7,3-1.1,3.9-1.1c5.7,0,7.5,5.1,7.5,9.5c0,3.6-0.1,9.1-0.1,13.7
		c2.2,2.5,4.1,3,5.2,3.3l-0.2,0.3c-0.4,0.2-1.3,0.5-2.4,0.5c-4.1,0-5.5-1.9-6-3.4h-0.1c-2.9,2.5-5.7,3.7-7.3,3.7c-5.2,0-7-4.2-7-6.4
		c0-2.5,1-3.9,2.2-4.5c1.2-1,7-3.1,12.1-4.2V43.5z M109,57.8c1.3,0,3.2-0.7,4.7-2.2c0.4-0.4,0.5-0.7,0.5-1.5l0.1-8.2
		c-2.8,0.7-7.1,2.2-8.6,3.1c-1.2,0.7-1.8,1.5-1.8,3.3C104.1,56.4,107,57.8,109,57.8z"/>
	<path class="st0" d="M136.2,59.3l-0.1,0.2c-1.9-0.1-3.9-0.1-6-0.1c-2.2,0-4.2,0.1-6.2,0.1l0.1-0.2l3.9-2c0.1-3,0.2-7.1,0.2-21.7
		c0-5.4,0-13.5-0.1-16.5l-3.3-1.5l0.3-0.3c1.6-0.7,4.6-1.2,7.1-1.6c-0.1,6.8-0.1,13.3-0.1,19.8c0,12.2,0.1,17.1,0.2,21.9L136.2,59.3
		z"/>
</g>
</svg>
