<?xml version="1.0" encoding="utf-8"?>
<!-- Generator: Adobe Illustrator 25.0.0, SVG Export Plug-In . SVG Version: 6.00 Build 0)  -->
<svg version="1.1" id="Layer_1" xmlns="http://www.w3.org/2000/svg" xmlns:xlink="http://www.w3.org/1999/xlink" x="0px" y="0px"
	 viewBox="0 0 288 216" style="enable-background:new 0 0 288 216;" xml:space="preserve">
<style type="text/css">
	.st0{fill:#FFFFFF;}
</style>
<g>
	<path class="st0" d="M0.7,81.2c2.5,0.1,4.2,0.2,7.3,0.2c2.2,0,4.7-0.1,6.8-0.2l-0.2,0.3l-4.5,1.9c0.1,6.5,0,25.4,0,30.4
		c0,1.5-0.1,2.6-0.4,4c-2.2,9.2-6.9,13.3-8.6,14.8L0,132.2v-0.4c5.7-4.6,6.3-11.7,6.1-20.1c0-1.7-0.1-3.9-0.1-13
		C6,88.8,5.9,84.5,5.8,83.4l-5.4-1.9L0.7,81.2z"/>
	<path class="st0" d="M15.8,96.1l0.2-0.2c1-0.3,5.8-0.9,7.6-0.9c-0.3,2.8-0.6,7.6-0.6,19c0,1.7,0.5,3.1,1.1,3.9c1.2,1.2,3,2,4.7,2
		c2.7,0,6.3-2.2,7.5-4.4V97.8c-1.4-0.6-2.6-1.2-4.1-1.8l0.2-0.2c2-0.4,6.3-0.8,8-0.7c-0.2,2.8-0.2,7-0.2,23.1c1.3,2.1,3.4,3,4.9,3.4
		l-0.1,0.2c-0.6,0.3-1.7,0.6-2.8,0.6c-1.7,0-5.4-0.2-6-4.9l-0.1-0.1c-2.6,3-5.6,5.2-9,5.2c-1.8,0-4.2-0.6-5.8-2.1
		c-1.5-1.5-2.3-3.8-2.3-6.8c0-4.4,0.1-11,0.1-16.1L15.8,96.1z"/>
	<path class="st0" d="M60.9,96.1c1-0.7,2.3-1.3,3-1.5l0.2,0.2c0,0.6-0.7,5.4-1.3,6.6l-0.2,0.2c-0.9-1.5-1.8-3.8-2.1-4.4
		c-0.4-0.2-1.2-1-3.6-1c-3.2,0-5.1,2.4-5.1,4.9c0,1.6,0.6,3,2.6,4.1c2.3,1.1,4.1,2,5.6,2.6c3.3,1.4,5.4,3.4,5.4,7c0,5.7-5.8,8-9.5,8
		c-3.1,0-6.7-1.5-8.4-2.8c0.1-1.2,1.3-5,1.7-6l0.2-0.2c0.8,1.6,1.7,5.8,2.2,6.8c0.7,0.4,2.2,0.6,3.9,0.6c3,0,6.2-2.2,6.2-5.4
		c0-1.8-0.7-3.3-2.8-4.2c-1.4-0.7-3-1.5-5.4-2.6c-3-1.5-5-3.4-5-7c0-4.1,3.4-7.4,8.3-7.4C58.2,94.6,59.7,95.1,60.9,96.1z"/>
	<path class="st0" d="M84.4,95.4l-1,1.2l-8.1,0.7c0,3.5,0,10.9,0,20.1c0,0.6,0.7,1.5,1,1.8c0.7,0.5,1.6,0.9,3.2,0.9
		c2.2,0,3.8-0.9,4.8-1.6l0.2,0.1l-0.2,1c-1.4,1.7-3.4,3-6.3,3c-2,0-4-1-5.2-2.5c-1-1.3-1.3-2.7-1.3-6.6V97.3l-4-0.7l0.9-1.2h3.1
		c0.1-1.3,0.4-3.8,1-6.5c0.5-1.1,2.2-2.3,3-2.3l-0.2,8.7H84.4z"/>
	<path class="st0" d="M99.4,81.5c3.3-0.2,9.7-0.8,13.3-0.8c8.6,0,14.2,2.6,14.2,9.2c0,6.2-5.8,9-10.4,9.9v0.4c9,1,13,4.6,13,9.7
		c0,10.8-11.8,12.1-19.1,12.1c-4.2,0-7.8-0.1-11.3-0.2v-0.2l5-1.7c0.1-0.7,0.4-7.3,0.4-15.8v-21l-5.3-1.2L99.4,81.5z M108.5,100.9
		v1.5c0,5.6-0.2,13.5,0.3,18.5c8.1-0.1,11.4-1.8,13.4-3.8c1.9-2,2.5-4.6,2.5-6.8C124.7,105,122.2,100.5,108.5,100.9z M108.5,99.8
		c8.2-0.2,14-2,14-9.6c0-2.6-1-5-3.3-6.4c-2.2-1.4-4.8-1.7-9.9-1.7h-0.8V99.8z"/>
	<path class="st0" d="M138.7,106.6c-0.1,0.6-0.1,1-0.1,1.6c0,8.1,5,12.4,10.9,12.4c0.7,0,1.1-0.1,1.8-0.2c2.2-1.7,3.8-3,4.7-3.6
		l0.1,0.2c-0.4,1.2-2,3.4-2.6,3.9c-1.4,0.8-4.9,1.7-6.7,1.7c-7.2,0-12.5-5.5-12.5-13.3c0-8.9,6.5-14.8,13-14.8c5.4,0,9.7,4,9.7,9.7
		c0,0.9-0.2,1.3-0.6,1.6c-0.6,0.2-2.8,0.7-5.4,0.7H138.7z M152.5,105.2c0.2-0.2,0.4-1.3,0.4-2.2c0-2.7-1.7-7.4-5.8-7.4
		c-6,0-8.2,7.2-8.3,9.6H152.5z"/>
	<path class="st0" d="M176.4,94.6c3.4,0,6.7,1.5,7.5,2.2c-0.5,1.8-1.2,4.4-2.2,5.9l-0.1,0.1c-0.6-1.2-1.1-3.6-1.7-6.5
		c-0.6-0.2-1.4-0.4-2.8-0.4c-7.8,0-11.3,6.1-11.3,12.5c0,7.2,4.9,12.4,11.4,12.4c0.6,0,1.3-0.1,1.7-0.2c2.6-2.4,4.1-3.4,5.1-3.9
		l0.1,0.1c-0.5,1.6-2.8,4.5-3.6,5c-1,0.4-3.8,0.9-5.5,0.9c-5,0-13.5-3.3-13.5-13.9C161.4,99.3,169,94.6,176.4,94.6z"/>
	<path class="st0" d="M202.6,105.8c-0.4-7.6-2.7-9-6.3-9c-1.2,0-2.9,0.5-4.2,1.4c0,1.5,0.1,3.4-0.2,6l-0.1,0.1
		c-0.6-0.1-3-2.9-3.6-4.7c1.2-1.1,5.2-3.2,6.6-3.8c1.7-0.7,3.1-1.1,4-1.1c5.7,0,7.6,5.2,7.6,9.7c0,3.7-0.1,9.2-0.1,13.8
		c2.2,2.6,4.1,3,5.2,3.4l-0.2,0.3c-0.4,0.2-1.3,0.6-2.4,0.6c-4.1,0-5.5-1.8-6.1-3.4h-0.1c-3,2.6-5.8,3.8-7.4,3.8
		c-5.2,0-7.1-4.2-7.1-6.5c0-2.5,1-4,2.2-4.6c1.2-1,7.1-3.1,12.2-4.3L202.6,105.8z M197.3,120.3c1.4,0,3.3-0.7,4.7-2.2
		c0.4-0.4,0.6-0.7,0.6-1.5l0.1-8.3c-2.9,0.7-7.2,2.2-8.6,3.1c-1.2,0.7-1.8,1.5-1.8,3.3C192.3,118.9,195.2,120.3,197.3,120.3z"/>
	<path class="st0" d="M212.1,96.1l0.2-0.2c1-0.3,5.8-0.9,7.6-0.9c-0.3,2.8-0.6,7.6-0.6,19c0,1.7,0.5,3.1,1.1,3.9c1.2,1.2,3,2,4.7,2
		c2.7,0,6.3-2.2,7.5-4.4V97.8c-1.4-0.6-2.6-1.2-4.1-1.8l0.2-0.2c2-0.4,6.3-0.8,8-0.7c-0.2,2.8-0.2,7-0.2,23.1c1.3,2.1,3.4,3,4.9,3.4
		l-0.1,0.2c-0.6,0.3-1.7,0.6-2.8,0.6c-1.7,0-5.4-0.2-6-4.9l-0.1-0.1c-2.6,3-5.6,5.2-9,5.2c-1.8,0-4.2-0.6-5.8-2.1
		c-1.5-1.5-2.3-3.8-2.3-6.8c0-4.4,0.1-11,0.1-16.1L212.1,96.1z"/>
	<path class="st0" d="M257.2,96.1c1-0.7,2.3-1.3,3-1.5l0.2,0.2c0,0.6-0.7,5.4-1.3,6.6l-0.2,0.2c-0.9-1.5-1.8-3.8-2.1-4.4
		c-0.4-0.2-1.2-1-3.6-1c-3.2,0-5.1,2.4-5.1,4.9c0,1.6,0.6,3,2.6,4.1c2.3,1.1,4.1,2,5.6,2.6c3.3,1.4,5.4,3.4,5.4,7c0,5.7-5.8,8-9.5,8
		c-3.1,0-6.7-1.5-8.4-2.8c0.1-1.2,1.3-5,1.7-6l0.2-0.2c0.8,1.6,1.7,5.8,2.2,6.8c0.7,0.4,2.2,0.6,3.9,0.6c3,0,6.2-2.2,6.2-5.4
		c0-1.8-0.7-3.3-2.8-4.2c-1.4-0.7-3-1.5-5.4-2.6c-3-1.5-5-3.4-5-7c0-4.1,3.4-7.4,8.3-7.4C254.5,94.6,256,95.1,257.2,96.1z"/>
	<path class="st0" d="M269.7,106.6c-0.1,0.6-0.1,1-0.1,1.6c0,8.1,5,12.4,10.9,12.4c0.7,0,1.1-0.1,1.8-0.2c2.2-1.7,3.8-3,4.7-3.6
		l0.1,0.2c-0.4,1.2-2,3.4-2.6,3.9c-1.4,0.8-4.9,1.7-6.7,1.7c-7.2,0-12.5-5.5-12.5-13.3c0-8.9,6.5-14.8,13-14.8c5.4,0,9.7,4,9.7,9.7
		c0,0.9-0.2,1.3-0.6,1.6c-0.6,0.2-2.8,0.7-5.4,0.7H269.7z M283.4,105.2c0.2-0.2,0.4-1.3,0.4-2.2c0-2.7-1.7-7.4-5.8-7.4
		c-6,0-8.2,7.2-8.3,9.6H283.4z"/>
</g>
</svg>
