<?xml version="1.0" encoding="utf-8"?>
<!-- Generator: Adobe Illustrator 23.0.1, SVG Export Plug-In . SVG Version: 6.00 Build 0)  -->
<svg version="1.1" id="Layer_1" xmlns="http://www.w3.org/2000/svg" xmlns:xlink="http://www.w3.org/1999/xlink" x="0px" y="0px"
	 viewBox="0 0 288 216" style="enable-background:new 0 0 288 216;" xml:space="preserve">
<style type="text/css">
	.st0{fill:#77CEDA;}
</style>
<g>
	<path class="st0" d="M159.1,97.1c-3.1,0.1-5,1.6-7.1,3c-0.5,3.1-1.1,6.2-1.4,9.4c-1.3,11.3-2.5,22.5-3.8,33.8
		c-0.4,3.2-1,6.3-1.5,9.5c-0.2,1.5-0.7,3-1.8,4.1c-3.5-0.2-4.2-1-3.8-3.6c1-5.5,2-10.9,2.9-16.4c0.1-0.5,0.1-1,0.2-1.5
		c1.1-9.9,2.3-19.8,3.4-29.7c0.2-1.7,0.5-3.3,0.8-5c1.6-9.3,3.1-18.7,4.7-28c1-5.8,1.9-11.7,3.1-17.5c0.4-1.8,1.2-3.5,1.8-5.2
		s1.9-2.8,3.3-3.7c1.2-0.8,3-0.2,3.3,1.2c0.3,1.1,0.4,2.4,0.2,3.5c-1.3,6.1-0.4,12.1-0.1,18.2c0.2,4.4,0.4,8.8,0.5,13.2
		c0.3,9.6,0.5,19.2,0.9,28.9c0.3,8.9,0.7,17.9,1.2,26.8c0.1,2.3,0.6,4.7,1.2,7c0.8,3.2,0.8,6.4,0.6,9.6c-0.1,1.7-1,2.8-2.2,3
		c-1.5,0.2-3.3-1.2-3.5-3c-0.2-1.5-0.2-3-0.1-4.6c0.2-2.2,0-4.4-0.6-6.5c-0.3-1-0.5-2-0.5-3c-0.4-13.3-0.8-26.7-1.2-40
		C159.6,99.4,159.4,98.4,159.1,97.1z M159,91.7c0.5-8.3,0.1-16.5-0.5-24.6c-1.6,0.3-1.7,1.3-1.8,2.3c-1.1,6.8-2.2,13.6-3.2,20.4
		c-0.2,1.1,0.1,2.2,0.3,3.7C155.8,92.9,157.3,92.3,159,91.7z"/>
	<path class="st0" d="M202,50c4.2,0.3,4.7,0.8,4.5,3.7c-0.2,3.2-0.6,6.4-0.8,9.6c-0.5,8.6-1.2,17.2-1.4,25.8
		c-0.1,3.9,0,7.7-0.4,11.6c-0.8,7.5-1.3,15.1-2.4,22.6c-0.9,6.3-2.3,12.6-3.8,18.9c-0.7,2.9-2.3,5.6-4.2,8c-2,2.4-4.6,3.4-7.5,3.8
		c-2.6,0.4-4.7-0.8-6.1-2.9c-1.1-1.7-2-3.6-2.6-5.5c-1.7-6-2.6-12.2-2.4-18.5c0.1-5.1,0-10.1,0.1-15.2c0.2-5.1,0.6-10.1,0.9-15.2
		c0.6-8.6,1.2-17.2,1.8-25.8c0.2-2.5,0.5-5,0.9-7.6c0.5-3.5,1.1-7,1.7-10.5c0.3-1.8,0.7-3.6,1.3-5.4c0.8-2.5,1.4-2.7,4.7-1.2
		c0,0.6,0.1,1.3-0.1,1.9c-2.5,8.5-3.4,17.2-4,26c-0.7,9.6-1.6,19.2-2.3,28.8c-0.3,3.7-0.1,7.4-0.1,11.1c0,3,0.1,6.1,0,9.1
		c-0.3,7.3,0.3,14.5,2.6,21.5c0.3,1,0.7,1.9,1.1,2.8c0.2,0.5,0.5,0.9,0.7,1.1c3.4,0.7,5.6-0.5,7-3.2c0.8-1.5,1.7-3,2-4.6
		c2.2-9.4,4.7-18.7,4.9-28.4c0.1-4.2,0.9-8.4,1.4-12.6c0.1-1,0.4-2,0.4-3c0.1-6.8,0-13.5,0.1-20.3c0.1-3.4,0.3-6.8,0.5-10.1
		c0.2-3.9,0.4-7.8,0.6-11.6C201.6,53.2,201.8,51.7,202,50z"/>
	<path class="st0" d="M65.9,126.6c4.8,6.5,3.9,13.4,2.8,20.3c-0.4,2.3-0.8,4.6-1.4,6.8c-1.3,4.9-3.5,9.3-8.2,12
		c-1.4,0.8-2.6,2-4.1,2.5c-2,0.7-4.1,1.5-6.2,1.4c-2.5-0.1-4.8-0.6-7,1c-0.7,0.5-1.8-0.1-2.2-1s-0.8-2-0.7-3
		c0.1-1.8,0.4-3.6,0.9-5.3c1.5-6.1,1.9-12.3,3-18.4c0.6-3.3,1.2-6.7,1.9-10c1.7-8.9,3.4-17.9,5-26.8c0.4-1.9,0.4-3.9,0.8-5.8
		c0.3-1.8,2.4-2.8,3.6-1.6c1.8,1.9,3.5,1.8,5.8,1.4c5.7-0.8,9.3,1.6,11.6,7.3c2.6,6.5,1.1,12.2-3.6,17.2
		C67.1,125.2,66.7,125.7,65.9,126.6z M45.5,164c3.9,1.2,4.3,1.4,5.7,0.6c4.8-2.6,9.3-5.6,10.7-11.3c0.9-3.5,1.6-7,2-10.5
		c0.3-2.8,0.1-5.7-0.1-8.5c-0.2-2.5-1.7-3.8-4.2-4c-2.8-0.2-5.6-0.2-8.4-0.3c-1.6,1.4-1.5,3.3-1.8,5c-0.4,3.2-0.7,6.4-1.2,9.5
		c-0.9,6.2-2,12.3-2.9,18.4C45.3,163.2,45.4,163.4,45.5,164z M54.5,107.1c-0.3,1.3-0.8,2.6-1.1,4c-0.7,3.5-1.3,7-1.8,10.5
		c-0.1,0.6,0.3,1.3,0.4,2c1.4,0.2,2.6,0.3,3.9,0.5c3.5,0.5,6.3-0.5,8.1-3.6c0.6-1.1,1.5-2,2.1-3c1.9-3.4,1.4-6.9-0.4-10.1
		c-0.8-1.5-2.2-2.4-4-2.1C59.4,105.7,56.8,105.5,54.5,107.1z"/>
	<path class="st0" d="M234.4,69.7c-1.8-1.1-2.4-2.7-2.1-4.7c0.2-1.5,0.1-3.1,0.3-4.6c0.5-3.2-0.7-5.5-3.2-7.4
		c-1.2-0.9-2.6-1-3.6,0.1c-0.6,0.6-1,1.4-1.4,2.1c-3.4,6.5-4.2,13.5-4,20.7c0.1,3.5,1.8,6.5,3.5,9.4c0.7,1.3,1.6,2.6,2.6,3.7
		c5,6,7,13,7.4,20.6c0.2,4.7,0.3,9.5,0.6,14.2c0.7,9.6-3.6,17-10,23.5c-2.5,2.6-6,3.3-9.3,3.3c-3.1,0-5.4-2-6.8-4.7
		c-1.1-2.1-2-4.3-2.6-6.6c-0.4-1.4-0.1-3,0.2-4.5c0.4-2.5,0.9-5,1.5-7.4c0.1-0.4,0.5-1.1,0.8-1.1c0.6-0.1,1.5,0.1,1.8,0.5
		c0.5,0.6,0.9,1.5,0.9,2.2c0.1,1.9,0.1,3.7-0.2,5.6c-0.7,4.6,0.9,8.2,3.9,11.3c2.8,0.4,4.9-0.8,6.6-2.5c1.7-1.7,3.2-3.5,4.5-5.5
		c1.7-2.5,3-5.3,3-8.5c0-1.7,0.4-3.4,0.3-5.1c-0.1-5.6-0.3-11.2-0.4-16.7c-0.2-5.4-2.3-10.2-5.3-14.6c-1.2-1.8-2.5-3.6-3.8-5.4
		c-3.3-4.4-4.5-9.4-4.2-14.8c0.1-2.7,0.5-5.4,0.7-8.1c0.1-2.3,0.8-4.3,1.6-6.4c0.8-2,1.5-4.1,2.5-6.1c2.9-5.9,10.1-7.7,14.9-3.8
		c0.9,0.8,1.5,1.7,1.8,2.9c1.1,4.9,0.8,9.8,0.5,14.6C237.3,68,236.3,69.2,234.4,69.7z"/>
	<path class="st0" d="M113.3,144.2c0.5-3.2,1.1-6.3,1.6-9.5c0.5-3.3,1-9.4,1.4-12.8c0.9-6.9,1.6-13.8,2.8-20.6
		c0.9-5.2,1.5-10.4,2.3-15.5c1.3-8.5,3.2-16.9,5-25.4c0.8-3.8,3-7.2,4.5-10.7c0.3-0.6,0.8-1.2,1.4-1.4c2.7-1.2,5.6-1.4,8.3,0.1
		c3.1,1.8,4.3,6.9,2.4,9.9c-0.4,0.6-1.4,1-2.1,1c-0.4,0-1.1-0.8-1.2-1.4c-0.3-1.3-0.3-2.7-0.6-4c-0.2-1.1-1-1.9-2.1-1.8
		c-0.7,0.1-1.7,0.6-2,1.2c-1.5,2.6-3,5.3-3.7,8.3c-1,5-2.1,9.9-3.2,14.9c-0.3,1.5-0.6,3-0.8,4.5c-0.6,3.5-1.1,7-1.7,10.5
		c-0.1,0.7,0.1,1.4-0.1,2c-1.3,5.6-1.7,11.3-2.3,17c-0.6,5.7-1.7,14.1-2.5,19.8c-0.5,3.8-1.3,7.7-1.7,11.5
		c-0.3,3.4-0.5,6.7-0.5,10.1c0,2.6,1.4,3.7,4.2,4.2c2.3,0.3,4-0.5,4.8-2.8c1.1-3,2.5-5.9,2.7-9.2c0.2-2.2,0.9-4.3,2.2-6.1
		c0.2-0.4,0.9-0.7,1.2-0.7c0.6,0.1,1.1,0.6,1.6,1c0.2,0.2,0.4,0.6,0.3,0.9c-1.2,5.3-0.7,10.8-2.9,15.9c-1.5,3.7-4.3,5.6-8.1,6
		c-2.7,0.3-5.4-0.4-7.8-1.8c-2.4-1.3-3.7-3.4-3.6-6.2c0.1-3,0.4-6.1,0.6-9.1C113.5,144.2,113.4,144.2,113.3,144.2z"/>
	<path class="st0" d="M252.6,50.9c-0.3,0.6-0.6,0.8-0.6,1.1c-0.4,6.5-0.8,13.1-1.2,19.6c0,0.5,0.2,0.9,0.2,1.3
		c1.1,1.2,2.4,0.9,3.6,0.8c2.4-0.1,4.8-0.2,7.2-0.1c1.1,0.1,2.3,0.6,1.7,2.4c-4.1,1.4-8.7,1.1-13.2,2.9c0,1.9-0.2,3.8-0.1,5.7
		c0.2,3.7,0,7.3-0.9,10.9c-0.6,2.1-0.6,4.4-0.8,6.7c-0.5,8.8-1.3,17.5-2.8,26.2c-0.7,4.1-0.6,8.2-0.9,12.7c1.2-0.1,2.2,0.1,3-0.3
		c5.2-2.1,10.9-2.5,15.9-5.1c0.4-0.2,1-0.3,1.4-0.2c0.7,0.3,1.6,0.7,1.8,1.2c0.2,0.6-0.2,1.8-0.7,2c-2.1,1-4.3,2.3-6.6,2.6
		c-4.8,0.8-9.2,2.6-13.6,4.6c-1,0.5-2.1,0.9-3.2,1.1c-1.7,0.3-3.3-1-3.3-2.7c0.1-3,0.2-6.1,0.6-9.1c0.6-4.9,1.5-9.8,2.2-14.7
		c0.8-6,1.5-12.1,2.2-18.1c0.3-2.4,0.4-4.8,0.8-7.1c1.1-6,1.1-12.1,1-18.1c0-1.3,0-2.6,0.2-3.8c1-6.2,1.1-12.4,1.1-18.7
		c0-2.1,0-4.2,0.1-6.2c0.1-1.3,0.8-2,2.2-2.1c5.6-0.2,11.2-0.4,16.8-0.5c0.6,0,1.3,0,1.9,0c1,0,1.9,0.1,2.4,1.2
		c0.3,0.6-0.7,1.4-2,1.5c-2.2,0.3-4.5,0.4-6.7,0.7C258.9,49.9,255.6,50.2,252.6,50.9z"/>
	<path class="st0" d="M85.6,119.6c4.6-0.6,8.3-1.2,12-1.6c1.4-0.2,2.3,0.7,2.4,2.6c-4.6,2.1-9.9,2.3-14.7,4.8
		c-2,10.9-3.5,22.1-4.7,33.2c-0.1,1,0.1,2.1,0.2,3.5c1.6-0.1,3,0,4.4-0.3c4.6-1.3,9.2-2.7,13.9-4c1.2-0.3,2.4-0.6,3.6-0.4
		c0.7,0.1,1.5,1.1,1.7,1.8c0.3,1-0.6,1.4-1.5,1.7c-2.4,0.7-4.7,1.6-7.1,2.3c-5.3,1.6-10.6,3.1-15.9,4.6c-0.7,0.2-1.4,0.2-2.1,0.1
		c-1.7-0.1-3-1.5-3-3.2c0-1.6,0.2-3.2,0.4-4.8c0.8-5.8,1.6-11.7,2.3-17.5c0.8-6.2,1.5-12.4,2.3-18.6c1-7.6,1.9-15.2,3-22.8
		c0.3-2.3,1.8-3.3,3.8-2.4c3.8,1.7,7.3,0.7,10.9-0.4c3.4-1,6.8-2.2,10.2-3.3c1-0.3,2.1-0.4,3.1-0.5c0.3,0,0.8,0.3,0.9,0.5
		c0.1,0.5,0.2,1.3,0,1.5c-1.6,1.1-3.2,2.3-5,2.9c-6.2,2.1-12.1,5.4-19,5.5C86.1,109.7,86.1,114.5,85.6,119.6z"/>
	<path class="st0" d="M37.4,48.4c1.4-0.2,2.1,0.7,2.2,1.7c0.3,2,0.5,4,0.5,6c0.1,7.3-1,14.5-1.8,21.7c-1.2,10.9-3.2,21.7-4.9,32.6
		c-0.8,5.2-3,10-6.5,14c-1.5,1.7-3.3,2.9-5.2,3.9c-2.2,1.2-4.5,1.4-6.7,0.1c-0.4-0.3-0.9-0.5-1.4-0.6c-4.5-0.9-5.6-5.5-5-8.7
		c0.6-3.6,1.6-7.2,2.5-10.8c0.1-0.4,0.7-0.8,1.1-0.8c0.4-0.1,1.2,0.1,1.3,0.5c0.5,1,1.2,2.1,1.2,3.2c0,1.8-0.3,3.7-0.6,5.5
		c-0.1,0.8-0.5,1.6-0.7,2.4c-0.5,2.6,0.1,3.9,2.2,5.1c2.2,1.2,3.8,1.1,5.5-0.6c4-3.9,6.6-8.6,7.5-14.1c2.1-13.7,4.9-27.3,6.2-41.1
		c0.6-6.2,1.4-12.4,2.1-18.6C37,49.2,37.3,48.8,37.4,48.4z"/>
	<path class="st0" d="M56.4,49.4c0.6,0.1,1.7,0,2.2,0.5s0.7,1.6,0.6,2.3c-0.4,2.1-1.1,4.3-1.7,6.4c-1.9,6.6-2.2,13.3-2.2,20.1
		c0,1.9,0.2,4,1.8,5.7c4.6-3.2,7.4-7,8-12.5c0.6-5.9,1.5-11.7,2.4-17.6c0.2-1.3,0.6-2.7,1.3-3.8c0.3-0.6,1.3-1.1,2-1.2
		c1.2-0.2,1.9,0.8,2.2,1.8c0.2,0.9,0,2-0.1,3c-1,6-2.1,12-2.9,18c-0.4,2.7-1.2,5.2-2.1,7.8c-1.3,4-4.5,6.4-7.6,8.5
		c-3,2.1-7.9-0.1-9-3.8c-0.5-1.6-0.8-3.3-0.8-5c0.1-9.2,1.1-18.2,4.1-26.9c0.3-0.8,0.7-1.6,1-2.3C55.6,50.1,56,49.9,56.4,49.4z"/>
	<path class="st0" d="M85.3,85.3c-1.8,0.3-2.8,0.5-3.8,0.7c-3.5,0.4-6.4-1.7-6.7-5.2c-0.1-1.7,0.2-3.4,0.5-5
		c0.2-1.1,1.1-1.7,2.3-1.6c1.1,0.1,2,0.6,2.1,1.8c0.1,1,0,2,0.2,3c0.1,0.6,0.7,1.3,1.2,1.5s1.4-0.1,1.8-0.5
		c3.5-3.5,3.2-9.2,0.2-11.8c-1-0.9-1.9-1.9-2.9-2.8c-1.6-1.5-2.4-3.2-2.1-5.4c0.1-1,0.2-2,0.3-3c0.7-4.9,4.1-7.7,9.1-7.3
		c1.3,0.1,2.7,0.2,4,0.6c1.3,0.4,2.2,1.4,2.4,3c0.1,1.6-1,2.6-2.5,2.2c-1.1-0.3-2.2-0.9-3.3-1c-1.8-0.2-3.4,0.5-4.2,2.2
		c-0.8,1.9-1.2,3.8,0.4,5.7c1.7,1.9,3.3,3.8,4.7,5.9c2.5,3.7,2.3,7.7,0.3,11.5C88.1,81.7,86.6,83.5,85.3,85.3z"/>
	<path class="st0" d="M100.5,53.1c1.1-1.6,3-1.6,4.6-1.9c3.5-0.7,7-1.1,10.5-1.6c0.8-0.1,1.9,0.8,1.7,1.4c-0.2,0.6-0.6,1.3-1.1,1.5
		c-1.7,0.7-3.5,1.2-5.4,1.8c-0.4,4.1-0.8,8.1-1.2,12.1c-0.5,5.5-1.1,11.1-1.6,16.6c0,0.3-0.1,0.7-0.2,1c-0.3,1.1-0.8,1.9-2,2
		c-1.1,0.1-2.5-0.7-2.7-1.9c-0.2-1-0.2-2-0.1-3c0.6-5.2,1.4-10.3,2-15.5c0.3-3,0.4-6,0.5-9.3c-1.1-0.1-1.9,0-2.6-0.2
		C101.2,56,100.2,55,100.5,53.1z"/>
</g>
</svg>
