<?xml version="1.0" encoding="utf-8"?>
<!-- Generator: Adobe Illustrator 24.2.0, SVG Export Plug-In . SVG Version: 6.00 Build 0)  -->
<svg version="1.1" id="Layer_1" xmlns="http://www.w3.org/2000/svg" xmlns:xlink="http://www.w3.org/1999/xlink" x="0px" y="0px"
	 viewBox="0 0 288 216" style="enable-background:new 0 0 288 216;" xml:space="preserve">
<style type="text/css">
	.st0{fill:#FFFFFF;}
</style>
<g>
	
		<image style="overflow:visible;opacity:5.000000e-02;" width="266" height="142" xlink:href="10FBDFDA2107C368.png"  transform="matrix(1 0 0 1 11 37)">
	</image>
	<g>
		<g>
			<path class="st0" d="M161.3,98.3c-2.8,0.1-4.5,1.4-6.4,2.7c-0.4,2.7-0.9,5.5-1.3,8.4c-1.2,10-2.2,20.1-3.4,30.1
				c-0.3,2.8-0.9,5.7-1.3,8.5c-0.2,1.4-0.6,2.6-1.6,3.6c-3.1-0.2-3.8-0.8-3.4-3.2c0.9-4.9,1.7-9.8,2.6-14.7c0.1-0.4,0.1-0.9,0.2-1.3
				c1-8.8,2-17.7,3.1-26.5c0.2-1.5,0.5-3,0.7-4.5c1.4-8.3,2.8-16.7,4.2-25c0.9-5.2,1.7-10.4,2.7-15.6c0.3-1.6,1.1-3.1,1.6-4.7
				c0.5-1.5,1.7-2.5,2.9-3.3c1-0.7,2.6-0.2,2.9,1.1c0.2,1,0.4,2.1,0.2,3.1c-1.1,5.4-0.4,10.8-0.1,16.2c0.2,3.9,0.4,7.8,0.5,11.8
				c0.3,8.6,0.5,17.2,0.8,25.8c0.3,8,0.7,15.9,1.1,23.9c0.1,2.1,0.5,4.2,1.1,6.2c0.8,2.8,0.7,5.7,0.6,8.5c-0.1,1.5-0.9,2.5-2,2.7
				c-1.4,0.2-2.9-1.1-3.1-2.7c-0.1-1.3-0.1-2.7,0-4.1c0.1-2,0-3.9-0.6-5.8c-0.3-0.9-0.4-1.8-0.4-2.7c-0.4-11.9-0.7-23.8-1.1-35.7
				C161.8,100.3,161.5,99.5,161.3,98.3z M161.2,93.5c0.5-7.4,0.1-14.7-0.4-22c-1.4,0.2-1.5,1.2-1.6,2.1c-1,6.1-1.9,12.1-2.8,18.2
				c-0.1,1,0.1,2,0.2,3.3C158.3,94.5,159.7,94,161.2,93.5z"/>
			<path class="st0" d="M199.6,56.2c3.7,0.3,4.2,0.7,4.1,3.3c-0.2,2.9-0.5,5.7-0.7,8.6c-0.5,7.7-1.1,15.3-1.2,23
				c-0.1,3.5,0,6.9-0.3,10.4c-0.7,6.7-1.2,13.5-2.2,20.2c-0.8,5.7-2,11.3-3.3,16.8c-0.6,2.6-2,5-3.8,7.1c-1.8,2.1-4.1,3-6.7,3.4
				c-2.3,0.3-4.2-0.7-5.4-2.6c-1-1.5-1.8-3.2-2.3-4.9c-1.5-5.4-2.3-10.9-2.1-16.5c0.1-4.5,0-9,0.1-13.6c0.1-4.5,0.5-9,0.8-13.5
				c0.5-7.7,1-15.3,1.6-23c0.2-2.3,0.5-4.5,0.8-6.7c0.5-3.1,1-6.2,1.5-9.4c0.3-1.6,0.6-3.3,1.1-4.8c0.7-2.3,1.2-2.4,4.2-1.1
				c0,0.5,0.1,1.2-0.1,1.7c-2.2,7.6-3,15.3-3.6,23.2c-0.6,8.6-1.5,17.1-2.1,25.7c-0.2,3.3-0.1,6.6-0.1,9.9c0,2.7,0.1,5.4,0,8.1
				c-0.2,6.5,0.2,12.9,2.3,19.2c0.3,0.9,0.6,1.7,1,2.5c0.2,0.4,0.5,0.8,0.6,1c3,0.6,5-0.5,6.3-2.8c0.7-1.3,1.5-2.7,1.8-4.1
				c1.9-8.4,4.2-16.7,4.4-25.3c0.1-3.8,0.8-7.5,1.3-11.2c0.1-0.9,0.3-1.8,0.3-2.7c0.1-6,0-12.1,0.1-18.1c0-3,0.3-6,0.5-9
				c0.2-3.5,0.3-6.9,0.5-10.4C199.2,59.1,199.4,57.8,199.6,56.2z"/>
			<path class="st0" d="M78.1,124.6c4.3,5.8,3.5,11.9,2.5,18.1c-0.3,2-0.8,4.1-1.3,6.1c-1.2,4.4-3.1,8.3-7.4,10.7
				c-1.3,0.7-2.3,1.8-3.6,2.2c-1.8,0.7-3.7,1.4-5.5,1.3c-2.2-0.1-4.3-0.5-6.3,0.9c-0.7,0.5-1.6-0.1-2-0.9c-0.4-0.8-0.7-1.8-0.6-2.7
				c0.1-1.6,0.4-3.2,0.8-4.7c1.4-5.4,1.7-11,2.6-16.4c0.5-3,1.1-5.9,1.7-8.9c1.5-8,3-15.9,4.5-23.9c0.3-1.7,0.4-3.5,0.7-5.2
				c0.3-1.6,2.2-2.5,3.2-1.4c1.6,1.7,3.1,1.6,5.1,1.3c5.1-0.7,8.3,1.5,10.3,6.5c2.3,5.8,1,10.9-3.2,15.3
				C79.3,123.3,78.8,123.8,78.1,124.6z M60,158c3.5,1.1,3.8,1.3,5.1,0.6c4.2-2.3,8.3-5,9.5-10.1c0.8-3.1,1.4-6.2,1.8-9.4
				c0.3-2.5,0.1-5.1-0.1-7.6c-0.2-2.2-1.5-3.4-3.8-3.6c-2.5-0.2-5-0.2-7.5-0.3c-1.4,1.3-1.4,2.9-1.6,4.5c-0.4,2.8-0.6,5.7-1.1,8.5
				c-0.8,5.5-1.7,11-2.6,16.5C59.7,157.3,59.8,157.4,60,158z M68,107.2c-0.3,1.2-0.7,2.3-0.9,3.6c-0.6,3.1-1.1,6.2-1.6,9.4
				c-0.1,0.5,0.2,1.2,0.4,1.8c1.3,0.2,2.4,0.3,3.4,0.4c3.1,0.5,5.6-0.4,7.3-3.2c0.6-0.9,1.4-1.7,1.9-2.7c1.7-3.1,1.3-6.1-0.4-9.1
				c-0.8-1.4-2-2.2-3.5-1.9C72.3,105.9,70,105.8,68,107.2z"/>
			<path class="st0" d="M228.5,73.9c-1.6-1-2.1-2.4-1.9-4.2c0.2-1.3,0.1-2.7,0.3-4.1c0.5-2.9-0.6-4.9-2.8-6.6
				c-1.1-0.8-2.3-0.9-3.2,0.1c-0.5,0.5-0.9,1.2-1.2,1.9c-3.1,5.8-3.8,12-3.6,18.5c0.1,3.1,1.6,5.8,3.1,8.4c0.7,1.2,1.5,2.3,2.3,3.3
				c4.4,5.3,6.3,11.6,6.6,18.4c0.2,4.2,0.3,8.4,0.6,12.7c0.6,8.5-3.2,15.1-8.9,21c-2.3,2.3-5.3,2.9-8.3,2.9c-2.7,0-4.8-1.8-6-4.2
				c-1-1.9-1.8-3.9-2.3-5.9c-0.3-1.3-0.1-2.7,0.1-4c0.4-2.2,0.8-4.4,1.3-6.6c0.1-0.4,0.5-1,0.7-1c0.5,0,1.3,0.1,1.6,0.4
				c0.5,0.5,0.8,1.3,0.8,2c0.1,1.7,0,3.3-0.2,5c-0.6,4.1,0.8,7.3,3.5,10.1c2.5,0.4,4.3-0.7,5.9-2.2c1.5-1.5,2.8-3.2,4-4.9
				c1.5-2.3,2.6-4.7,2.7-7.6c0-1.5,0.3-3,0.3-4.5c-0.1-5-0.3-10-0.4-14.9c-0.1-4.9-2.1-9.1-4.7-13c-1.1-1.6-2.2-3.2-3.4-4.8
				c-3-3.9-4-8.4-3.7-13.2c0.1-2.4,0.5-4.8,0.6-7.2c0.1-2,0.7-3.8,1.4-5.7c0.7-1.8,1.4-3.7,2.2-5.4c2.5-5.3,9-6.9,13.3-3.4
				c0.8,0.7,1.3,1.5,1.6,2.6c1,4.3,0.7,8.7,0.4,13.1C231.1,72.4,230.1,73.4,228.5,73.9z"/>
			<path class="st0" d="M120.4,140.3c0.5-2.8,1-5.6,1.4-8.5c0.4-3,0.9-8.4,1.2-11.4c0.8-6.1,1.4-12.3,2.5-18.4
				c0.8-4.6,1.3-9.2,2-13.8c1.2-7.6,2.9-15.1,4.5-22.6c0.7-3.4,2.6-6.4,4.1-9.5c0.2-0.5,0.7-1.1,1.2-1.3c2.5-1.1,5-1.3,7.4,0.1
				c2.7,1.6,3.8,6.1,2.1,8.8c-0.3,0.5-1.2,0.9-1.9,0.9c-0.4,0-1-0.7-1.1-1.2c-0.3-1.2-0.3-2.4-0.5-3.5c-0.2-1-0.9-1.7-1.9-1.6
				c-0.6,0.1-1.5,0.5-1.8,1.1c-1.4,2.3-2.7,4.7-3.3,7.4c-0.9,4.4-1.9,8.8-2.8,13.3c-0.3,1.3-0.5,2.6-0.8,4c-0.5,3.1-1,6.2-1.5,9.4
				c-0.1,0.6,0,1.2-0.1,1.8c-1.2,5-1.5,10.1-2.1,15.2c-0.5,5.1-1.5,12.6-2.3,17.7c-0.5,3.4-1.1,6.8-1.5,10.3c-0.3,3-0.5,6-0.4,9
				c0,2.3,1.3,3.3,3.8,3.7c2,0.3,3.5-0.4,4.3-2.5c1-2.7,2.2-5.3,2.4-8.2c0.1-2,0.8-3.8,2-5.4c0.2-0.3,0.8-0.7,1.1-0.6
				c0.5,0.1,1,0.5,1.4,0.9c0.2,0.2,0.3,0.6,0.3,0.8c-1,4.7-0.6,9.6-2.6,14.2c-1.4,3.3-3.8,5-7.2,5.3c-2.5,0.3-4.8-0.4-7-1.6
				c-2.1-1.2-3.3-3.1-3.2-5.6c0.1-2.7,0.4-5.4,0.6-8.1C120.6,140.3,120.5,140.3,120.4,140.3z"/>
			<path class="st0" d="M244.7,57.1c-0.3,0.5-0.5,0.7-0.5,1c-0.4,5.8-0.8,11.7-1.1,17.5c0,0.4,0.2,0.8,0.2,1.2c1,1,2.1,0.8,3.3,0.7
				c2.1-0.1,4.3-0.2,6.4-0.1c1,0,2,0.5,1.5,2.1c-3.7,1.3-7.8,1-11.8,2.6c0,1.7-0.2,3.4-0.1,5c0.2,3.3,0,6.5-0.8,9.8
				c-0.5,1.9-0.6,3.9-0.7,5.9c-0.5,7.8-1.1,15.6-2.5,23.4c-0.6,3.6-0.5,7.4-0.8,11.3c1.1-0.1,2,0.1,2.6-0.2
				c4.6-1.9,9.7-2.3,14.2-4.6c0.4-0.2,0.9-0.3,1.2-0.2c0.6,0.2,1.4,0.6,1.6,1.1c0.2,0.5-0.2,1.6-0.6,1.8c-1.9,0.9-3.9,2-5.9,2.4
				c-4.3,0.7-8.2,2.4-12.1,4.1c-0.9,0.4-1.9,0.8-2.8,1c-1.5,0.3-3-0.9-2.9-2.4c0.1-2.7,0.2-5.4,0.5-8.1c0.6-4.4,1.4-8.7,1.9-13.1
				c0.7-5.4,1.3-10.8,2-16.1c0.3-2.1,0.3-4.3,0.7-6.4c1-5.4,1-10.8,0.9-16.2c0-1.1,0-2.3,0.1-3.4c0.9-5.5,1-11.1,1-16.6
				c0-1.9,0-3.7,0.1-5.6c0.1-1.2,0.7-1.8,1.9-1.8c5-0.2,10-0.3,14.9-0.5c0.6,0,1.1,0,1.7,0c0.9,0,1.7,0.1,2.1,1.1
				c0.2,0.6-0.6,1.2-1.8,1.4c-2,0.2-4,0.4-6,0.6C250.4,56.1,247.4,56.4,244.7,57.1z"/>
			<path class="st0" d="M95.7,118.4c4.1-0.6,7.4-1.1,10.7-1.4c1.3-0.1,2.1,0.6,2.1,2.3c-4.1,1.9-8.9,2-13.1,4.3
				c-1.8,9.8-3.2,19.7-4.2,29.6c-0.1,0.9,0.1,1.9,0.2,3.1c1.4-0.1,2.7,0,3.9-0.3c4.1-1.1,8.2-2.4,12.4-3.6c1-0.3,2.2-0.5,3.2-0.3
				c0.6,0.1,1.3,0.9,1.5,1.6c0.3,0.9-0.6,1.3-1.4,1.5c-2.1,0.6-4.2,1.4-6.3,2c-4.7,1.4-9.5,2.8-14.2,4.1c-0.6,0.2-1.3,0.2-1.9,0.1
				c-1.5-0.1-2.7-1.3-2.7-2.8c0-1.4,0.2-2.9,0.4-4.3c0.7-5.2,1.4-10.4,2.1-15.6c0.7-5.5,1.4-11,2.1-16.6c0.9-6.8,1.7-13.5,2.7-20.3
				c0.3-2,1.6-3,3.4-2.2c3.4,1.5,6.6,0.6,9.8-0.4c3-0.9,6-2,9.1-2.9c0.9-0.3,1.9-0.3,2.8-0.4c0.3,0,0.7,0.2,0.8,0.4
				c0.1,0.4,0.2,1.2,0,1.3c-1.4,0.9-2.9,2-4.5,2.6c-5.6,1.9-10.8,4.8-17,4.9C96.2,109.5,96.2,113.8,95.7,118.4z"/>
			<path class="st0" d="M52.7,54.8c1.2-0.2,1.8,0.6,2,1.5c0.3,1.8,0.5,3.6,0.5,5.4c0.1,6.5-0.9,12.9-1.6,19.4
				c-1.1,9.7-2.8,19.4-4.4,29.1c-0.8,4.7-2.7,8.9-5.8,12.5c-1.3,1.5-2.9,2.6-4.6,3.5c-2,1-4,1.3-6,0.1c-0.4-0.2-0.8-0.5-1.2-0.6
				c-4-0.8-5-4.9-4.4-7.8c0.6-3.2,1.4-6.4,2.2-9.7c0.1-0.3,0.6-0.7,1-0.7c0.4-0.1,1,0.1,1.2,0.4c0.5,0.9,1.1,1.9,1.1,2.9
				c0,1.6-0.3,3.3-0.6,4.9c-0.1,0.7-0.5,1.4-0.6,2.2c-0.5,2.3,0.1,3.5,2,4.5c2,1.1,3.4,1,4.9-0.6c3.5-3.5,5.9-7.7,6.7-12.6
				c1.9-12.2,4.4-24.3,5.5-36.6c0.5-5.5,1.2-11.1,1.9-16.6C52.4,55.6,52.6,55.2,52.7,54.8z"/>
			<path class="st0" d="M69.6,55.7c0.6,0.1,1.5,0,1.9,0.5c0.4,0.4,0.7,1.4,0.5,2.1c-0.4,1.9-1,3.8-1.5,5.7c-1.7,5.9-1.9,11.9-2,17.9
				c0,1.7,0.2,3.6,1.6,5.1c4.1-2.9,6.6-6.3,7.2-11.2c0.6-5.2,1.4-10.5,2.2-15.7c0.2-1.2,0.6-2.4,1.1-3.4c0.3-0.5,1.1-1,1.8-1.1
				c1-0.2,1.7,0.7,1.9,1.6c0.2,0.8,0,1.8-0.1,2.6c-0.9,5.4-1.9,10.7-2.6,16.1c-0.3,2.4-1.1,4.7-1.8,7c-1.2,3.6-4,5.7-6.8,7.6
				c-2.7,1.8-7-0.1-8-3.4c-0.4-1.4-0.7-3-0.7-4.5c0.1-8.2,1-16.2,3.7-24c0.2-0.7,0.6-1.4,0.9-2.1C69,56.3,69.3,56.1,69.6,55.7z"/>
			<path class="st0" d="M95.5,87.7c-1.6,0.3-2.5,0.5-3.4,0.6c-3.1,0.4-5.7-1.5-6-4.7c-0.1-1.5,0.2-3,0.5-4.5c0.2-1,1-1.5,2-1.4
				c1,0.1,1.8,0.5,1.9,1.6c0.1,0.9,0,1.8,0.2,2.7c0.1,0.5,0.6,1.1,1,1.3c0.4,0.2,1.2-0.1,1.6-0.4c3.1-3.2,2.9-8.2,0.2-10.6
				c-0.9-0.8-1.7-1.7-2.6-2.5C89.4,68.5,88.7,67,89,65c0.1-0.9,0.1-1.8,0.3-2.7c0.6-4.4,3.7-6.8,8.1-6.5c1.2,0.1,2.4,0.2,3.6,0.6
				c1.2,0.4,2,1.3,2.1,2.7c0.1,1.4-0.9,2.3-2.3,1.9c-1-0.3-2-0.8-3-0.9c-1.6-0.2-3.1,0.4-3.7,2c-0.7,1.7-1.1,3.4,0.4,5.1
				c1.5,1.7,3,3.4,4.2,5.3c2.2,3.3,2,6.9,0.2,10.3C98,84.6,96.6,86.2,95.5,87.7z"/>
			<path class="st0" d="M109,59.1c1-1.4,2.7-1.4,4.1-1.7c3.1-0.6,6.2-1,9.3-1.4c0.7-0.1,1.7,0.7,1.5,1.3c-0.2,0.5-0.5,1.2-1,1.4
				c-1.5,0.6-3.1,1.1-4.8,1.6c-0.4,3.7-0.7,7.3-1.1,10.8c-0.5,4.9-1,9.9-1.5,14.8c0,0.3-0.1,0.6-0.2,0.9c-0.2,0.9-0.7,1.7-1.8,1.8
				c-1,0.1-2.2-0.7-2.4-1.7c-0.2-0.9-0.2-1.8,0-2.7c0.6-4.6,1.3-9.2,1.8-13.8c0.3-2.7,0.3-5.4,0.5-8.3c-1-0.1-1.7,0-2.3-0.2
				C109.6,61.6,108.8,60.7,109,59.1z"/>
		</g>
	</g>
</g>
</svg>
