<?xml version="1.0" encoding="utf-8"?>
<!-- Generator: Adobe Illustrator 24.0.0, SVG Export Plug-In . SVG Version: 6.00 Build 0)  -->
<svg version="1.1" id="Layer_1" xmlns="http://www.w3.org/2000/svg" xmlns:xlink="http://www.w3.org/1999/xlink" x="0px" y="0px"
	 viewBox="0 0 288 216" style="enable-background:new 0 0 288 216;" xml:space="preserve">
<style type="text/css">
	.st0{opacity:0.75;fill:#1F2020;enable-background:new    ;}
	.st1{opacity:0.75;fill:#F7D367;enable-background:new    ;}
	.st2{opacity:0.75;fill:#EC494A;enable-background:new    ;}
	.st3{fill:#FFFFFF;}
</style>
<g id="Layer_2_1_">
	<g id="Layer_1-2">
		<path class="st0" d="M147.6,18.6c10.6-0.4,21.3,0,31.4,3.3c27.4,8.9,47.1,25.7,55.5,54.1c1.3,3.8,1.7,7.8,1.1,11.9
			c-0.8,4.8-1,9.5-1.7,14.2c-1.3,9.5-4.2,18.5-8.8,26.8c-3.4,6-6.3,12.3-9.3,18.6c-7.9,17.6-20.9,30.6-37.5,40
			c-4,1.9-8.1,3.4-12.3,4.5c-14.4,4.4-29.1,6.9-44.2,5.5c-9.8-0.9-19.4-3.2-28.5-6.9c-13.9-5.7-26.6-13.8-37.7-23.9
			c-5.9-5.1-9.3-12.4-9.5-20.2c-1.7-30.3,5-58.8,19-85.5c4.2-8.2,10-15.2,18.5-19.5c3.2-1.6,5.8-4.4,8.9-6.3
			c4.1-2.4,8.2-4.7,12.5-6.7c5.3-2.4,11.1-3.9,16.1-6.7c6.1-3.3,13.1-4.6,20-3.5C143.1,18.6,145.4,18.5,147.6,18.6z"/>
		<path class="st1" d="M114.5,196.2c-20-2.3-38.8-8.7-50.6-27.7c-3.3-5.3-5.4-11.4-7.7-17.3c-5.5-13.3-8.8-27.5-9.8-41.8
			c-0.4-5.9,0.6-12,3-17.5c4.4-10.9,11.5-20.1,17.6-30c6.8-11.4,16.7-20,27.7-26.9c13.1-8.1,28-13.2,43.3-15.1
			c1.7-0.2,3.5-0.2,5.2,0c18.1,2.3,36.1,5.9,52.8,13.1c15.3,6.7,27.8,18.4,35.5,33.1c3.6,6.9,4.6,14.9,2.9,22.5
			c-2,10.4-4.4,20.5-6.8,30.9c-1.6,7.2-4.6,14-8.8,20c-4,5.8-7,12.2-12.6,16.7c-3.8,3.2-7.6,6.3-11.5,9.1
			c-7.6,5.1-15.2,10.1-22.9,15c-11.5,7.6-24.7,12.2-38.3,13.6C127.4,194.7,121.4,195.4,114.5,196.2z"/>
		<path class="st2" d="M139.7,193.8c-10.3,0.8-20.5,1.1-30.6-1.6c-26.9-7.2-46.8-22.5-56.4-49.4c-1.4-3.6-2.1-7.6-1.7-11.4
			c0.5-4.6,0.5-9.2,0.9-13.8C52.6,108.4,55,99.4,59,91c3-6,5.5-12.2,7.9-18.5c6.8-17.4,18.6-30.7,34.2-40.5c3.7-2.1,7.7-3.7,11.6-5
			c13.9-5,27.9-8.2,42.7-7.5c9.5,0.3,19,2,28,5.1c13.7,4.8,26.5,12,37.6,21.2c5.9,4.6,9.6,11.5,10.3,19c3.2,29.2-1.9,57-13.9,83.7
			c-3.7,8.2-8.8,15.2-16.9,19.9c-3.1,1.7-5.4,4.6-8.3,6.6c-3.8,2.6-7.7,5-11.7,7.1c-5,2.6-10.5,4.3-15.2,7.3
			c-5.8,3.5-12.5,5.1-19.3,4.4C144,193.5,141.8,193.7,139.7,193.8z"/>
		<path class="st3" d="M150.8,101.4c-1.4,0.1-2.7,0.6-3.7,1.6c-0.3,1.6-0.5,3.2-0.7,5c-0.7,5.9-1.4,11.8-2,17.6
			c-0.2,1.7-0.5,3.3-0.8,5c-0.1,0.8-0.4,1.5-0.9,2.2c-1.8-0.1-2.3-0.5-2-1.9c0.5-2.9,1-5.8,1.6-8.6l0.1-0.8l1.8-15.6
			c0.1-0.9,0.3-1.7,0.5-2.6l2.4-14.7c0.5-3.1,1-6.1,1.6-9.1c0.3-0.9,0.5-1.9,1-2.8c0.4-0.8,0.9-1.5,1.7-2c0.5-0.4,1.2-0.2,1.5,0.3
			c0.1,0.1,0.1,0.2,0.2,0.4c0.2,0.6,0.3,1.3,0.2,1.9c-0.5,3.2-0.5,6.3,0,9.5c0.1,2.3,0.2,4.6,0.3,6.9c0.2,5,0.3,10.1,0.5,15.1
			c0.2,4.8,0.4,9.4,0.6,14c0.1,1.3,0.3,2.4,0.6,3.7c0.4,1.6,0.5,3.3,0.4,5c0.1,0.7-0.5,1.4-1.2,1.6c-0.9,0-1.7-0.6-1.8-1.6
			c-0.1-0.8-0.1-1.6,0-2.3c0.1-1.2,0-2.3-0.4-3.4c-0.2-0.5-0.3-1.1-0.3-1.6c-0.2-7-0.5-14-0.6-21C151.1,102.5,151,102,150.8,101.4z
			 M150.8,98.5c0.2-4.3,0.1-8.6-0.3-12.9c-0.8,0.2-0.9,0.7-1,1.3c-0.5,3.6-1.2,7.1-1.6,10.7c0,0.6,0,1.4,0.2,2L150.8,98.5z"/>
		<path class="st3" d="M173.2,76.8c2.2,0.2,2.5,0.5,2.3,1.9c-0.1,1.5-0.3,3.3-0.5,5c-0.3,4.5-0.6,9-0.7,13.5c0,2.1,0,4.1-0.2,6.1
			c-0.5,4-0.7,7.9-1.3,11.9c-0.5,3.3-1.2,6.6-2,9.9c-0.4,1.5-1.2,3-2.2,4.1c-1,1.2-2.4,1.9-4,2c-1.3,0.2-2.5-0.5-3.2-1.6
			c-0.5-0.9-1-1.9-1.4-2.9c-0.9-3.2-1.4-6.4-1.3-9.7c0-2.6,0-5.3,0-7.9s0.3-5.3,0.5-7.9c0.3-4.5,0.6-9,1-13.5c0.1-1.4,0.3-2.6,0.5-4
			c0.3-1.8,0.5-3.7,0.9-5.5c0.2-1,0.4-1.9,0.7-2.8c0.5-1.4,0.7-1.4,2.4-0.6c0,0.4,0,0.6,0,1c-1.2,4.4-1.9,9-2.1,13.6
			c-0.4,5-0.9,10-1.3,15c-0.2,1.9,0,3.9,0,5.9c0,1.6,0,3.2,0,4.8c-0.3,3.8,0.3,7.6,1.4,11.3c0.2,0.5,0.4,1,0.5,1.4
			c0.1,0.2,0.3,0.4,0.4,0.5c1.4,0.5,3-0.2,3.7-1.6c0.5-0.7,0.8-1.5,1.1-2.4c1.4-4.9,2.3-9.8,2.6-14.9c0-2.2,0.5-4.4,0.7-6.6
			c0.1-0.5,0.2-1.1,0.2-1.6c0-3.5,0-7.1,0-10.6c0-1.8,0.2-3.5,0.3-5.3c0.1-2.1,0.2-4.1,0.4-6.1C172.9,78.4,173.1,77.7,173.2,76.8z"
			/>
		<path class="st3" d="M102,116.8c2.5,3.4,2.1,7,1.4,10.6c-0.2,1.2-0.5,2.3-0.7,3.5c-0.5,2.6-2.1,5-4.3,6.3
			c-0.6,0.5-1.4,0.9-2.2,1.4c-1,0.5-2.1,0.7-3.2,0.7c-1.3-0.3-2.5-0.1-3.7,0.5c-0.4,0.3-1,0-1.2-0.5c-0.3-0.5-0.4-1-0.4-1.6
			c0.1-1,0.2-1.9,0.5-2.8c0.8-3.2,1-6.4,1.6-9.6c0.3-1.7,0.6-3.5,1-5.2c0.9-4.8,1.8-9.4,2.6-14c0.2-1,0.2-2.1,0.4-3.1
			c0.2-1,1.3-1.4,1.9-0.8c0.8,0.8,2,1.1,3.1,0.7c3-0.5,4.9,0.8,6,3.8c1.4,3.1,0.6,6.7-1.9,9L102,116.8z M91.3,136.4
			c2,0.6,2.3,0.7,3,0.4c2.5-1.4,4.9-2.9,5.6-5.9c0.5-1.8,0.8-3.6,1.1-5.5c0.2-1.5,0.2-3,0-4.5c0-1.2-1-2.1-2.2-2.1c0,0,0,0-0.1,0
			c-1.4-0.1-3-0.1-4.4-0.2c-0.6,0.7-1,1.7-0.9,2.6c-0.3,1.6-0.4,3.3-0.6,5c-0.5,3.2-1,6.4-1.6,9.6C91.2,136,91.2,136.1,91.3,136.4z
			 M96.1,106.7c-0.2,0.6-0.5,1.4-0.5,2.1c-0.4,1.8-0.6,3.7-1,5.5c0,0.4,0.2,0.6,0.2,1.1c0.7,0.1,1.4,0.2,2,0.3
			c1.7,0.5,3.4-0.4,4.2-1.9c0.4-0.5,0.8-1,1.1-1.6c0.9-1.7,0.8-3.7-0.2-5.3c-0.4-0.8-1.3-1.3-2.1-1.1
			C98.5,105.7,97.2,106,96.1,106.7L96.1,106.7z"/>
		<path class="st3" d="M190.1,87.1c-0.9-0.5-1.4-1.5-1.1-2.5c0.1-0.8,0-1.6,0.2-2.3c0.3-1.5-0.4-3.1-1.6-3.9
			c-0.5-0.5-1.3-0.5-1.8-0.1c0,0,0,0-0.1,0.1c-0.3,0.4-0.5,0.7-0.7,1.1c-1.6,3.3-2.3,7.1-2.1,10.8c0.2,1.8,0.7,3.5,1.7,5
			c0.4,0.7,0.9,1.4,1.4,2c2.5,3.1,3.9,6.9,3.9,10.8c0.1,2.5,0.2,5,0.4,7.4c0.4,5-1.9,8.9-5.2,12.3c-1.4,1.3-3.1,1.8-4.9,1.7
			c-1.5-0.1-3-1.1-3.5-2.5c-0.5-1.1-1-2.3-1.4-3.4c-0.2-0.8-0.2-1.6,0-2.3c0.2-1.4,0.5-2.6,0.8-3.9c0-0.3,0.3-0.5,0.5-0.5
			c0.4,0,0.7,0.1,1,0.3c0.3,0.4,0.5,0.7,0.5,1.2c0.1,1,0,2-0.1,2.9c-0.4,2.3,0.5,4.4,2.2,5.9c1.3,0.2,2.6-0.3,3.4-1.3
			c0.9-0.9,1.7-1.8,2.3-2.9c1-1.3,1.5-2.9,1.6-4.4c0-0.9,0.2-1.8,0.2-2.6c0-2.9-0.2-5.9-0.2-8.7c-0.2-2.8-1.2-5.4-2.8-7.7
			c-0.6-1-1.3-1.9-2-2.8c-1.6-2.3-2.4-5-2.2-7.7c0-1.4,0.3-2.8,0.4-4.2c0.1-1.2,0.4-2.3,0.9-3.3c0.5-1.1,0.8-2.2,1.3-3.2
			c1.2-2.6,4.1-3.8,6.8-2.6c0.4,0.2,0.7,0.4,1.1,0.6c0.5,0.4,0.8,1,0.9,1.6c0.5,2.5,0.5,5.1,0.3,7.7C191.7,86.2,191,86.9,190.1,87.1
			z"/>
		<path class="st3" d="M126.8,126c0.3-1.6,0.6-3.3,0.8-5c0.3-1.6,0.5-5,0.7-6.7c0.5-3.6,0.8-7.2,1.4-10.8c0.5-2.7,0.8-5.4,1.2-8.1
			c0.7-4.4,1.7-8.8,2.6-13.2c0.6-2,1.4-3.8,2.3-5.6c0.2-0.4,0.4-0.6,0.7-0.7c1.4-0.7,3-0.7,4.3,0c1.7,1.2,2.3,3.5,1.3,5.3
			c-0.3,0.4-0.7,0.5-1.1,0.5c-0.2,0-0.5-0.5-0.6-0.7c-0.2-0.7-0.2-1.4-0.4-2.1c-0.1-0.5-0.5-1-1.1-0.9c-0.5,0.1-0.8,0.3-1.1,0.6
			c-0.9,1.4-1.5,2.8-1.9,4.3c-0.5,2.6-1.1,5.2-1.6,7.7c-0.2,0.8-0.4,1.6-0.5,2.3c-0.4,1.8-0.6,3.7-0.9,5.5c0,0.4,0,0.7,0,1.1
			c-0.6,3-1,5.9-1.3,8.9c-0.4,3-0.9,7.4-1.4,10.4c-0.3,2-0.6,4-0.8,6c-0.2,1.7-0.3,3.5-0.4,5.2c0,1.4,0.7,2,2.3,2.2
			c1.1,0.3,2.2-0.4,2.5-1.4c0.7-1.5,1.2-3.1,1.4-4.8c0.1-1.2,0.5-2.3,1.2-3.2c0.2-0.2,0.4-0.4,0.6-0.4c0.4,0.1,0.6,0.3,0.8,0.5
			c0.1,0.1,0.2,0.3,0.2,0.5c-0.6,2.8-0.4,5.7-1.6,8.3c-0.6,1.8-2.3,3.1-4.2,3.2c-1.4,0.1-2.9-0.2-4.1-0.9c-1.3-0.6-2-1.9-1.9-3.2
			c0-1.6,0.2-3.2,0.4-4.8L126.8,126z"/>
		<path class="st3" d="M199.7,77.2c-0.2,0.3-0.4,0.5-0.4,0.5c-0.3,3.4-0.5,6.8-0.6,10.3c0,0.3,0.1,0.5,0.1,0.7
			c0.5,0.6,1.3,0.5,1.9,0.5c1.3,0,2.5-0.1,3.8,0c0.5,0,1.2,0.3,0.9,1.3c-2.2,0.7-4.6,0.5-6.9,1.6c0,1-0.1,2,0,3
			c0.1,1.9,0,3.9-0.5,5.8c-0.3,1.2-0.4,2.3-0.4,3.5c-0.3,4.6-0.7,9.2-1.4,13.7c-0.4,2.2-0.3,4.3-0.5,6.7c0.5,0,1.1,0,1.6-0.2
			c2.7-1.1,5.7-1.4,8.4-2.7c0.2-0.1,0.5-0.2,0.7-0.1c0.4,0.1,0.8,0.4,0.9,0.6c0.1,0.4-0.1,0.8-0.4,1.1c-1.1,0.6-2.3,1.1-3.5,1.4
			c-2.5,0.5-4.9,1.3-7.2,2.3c-0.5,0.3-1,0.5-1.6,0.5c-0.8,0.2-1.5-0.4-1.7-1.1c0-0.1,0-0.2,0-0.3c0-1.6,0.1-3.2,0.4-4.8
			c0.4-2.5,0.8-5.1,1.2-7.7c0.5-3.2,0.8-6.3,1.2-9.5c0.2-1.3,0.2-2.5,0.5-3.7c0.5-3.2,0.6-6.3,0.5-9.5c-0.1-0.6,0-1.4,0-2
			c0.5-3.2,0.6-6.5,0.5-9.7c0-1.1,0-2.2,0-3.2c0-0.5,0.5-1.1,1-1.1c0.1,0,0.1,0,0.2,0c2.9-0.1,5.9-0.2,8.7-0.3c0.4,0,0.7,0,1,0
			c0.4,0,1,0.1,1.3,0.6c0.3,0.5-0.4,0.7-1.1,0.8l-3.4,0.3C203,76.6,201.3,76.9,199.7,77.2z"/>
		<path class="st3" d="M112.3,113.1c2.4-0.4,4.3-0.6,6.3-0.8c0.7-0.1,1.3,0.4,1.3,1.4c-2.4,1.1-5.2,1.2-7.7,2.5
			c-1.1,5.8-1.9,11.5-2.4,17.4c0,0.6,0,1.2,0.1,1.8c0.7,0,1.4,0,2.2-0.2c2.4-0.6,4.9-1.4,7.3-2.2c0.6-0.2,1.3-0.3,1.9-0.2
			c0.5,0.2,0.7,0.5,0.9,0.9c0.2,0.5-0.4,0.7-0.8,0.9c-1.3,0.4-2.5,0.8-3.7,1.2c-2.8,0.8-5.6,1.6-8.3,2.4c-0.4,0.1-0.7,0.1-1.1,0
			c-0.8-0.1-1.5-0.7-1.6-1.6c0-0.8,0.1-1.7,0.2-2.5c0.4-3.1,0.8-6.1,1.3-9.2c0.5-3.1,0.8-6.5,1.3-9.7c0.5-4,1-7.9,1.6-11.9
			c0.2-1.2,0.9-1.7,2-1.3c1.9,0.6,3.9,0.5,5.8-0.3c1.8-0.5,3.5-1.2,5.3-1.7c0.5-0.2,1.1-0.2,1.6-0.3c0.2,0,0.4,0.1,0.5,0.3
			c0,0.3,0.1,0.7,0,0.7c-0.8,0.6-1.7,1.2-2.6,1.6c-3.2,1.1-6.3,2.8-9.9,2.9C112.6,108,112.4,110.6,112.3,113.1z"/>
		<path class="st3" d="M87.1,75.9c0.5-0.1,1.1,0.3,1.2,0.8v0.1c0.2,1.1,0.3,2.1,0.3,3.2c-0.1,3.8-0.4,7.6-1,11.3
			c-0.6,5.8-1.6,11.3-2.6,17c-0.5,2.7-1.6,5.3-3.4,7.4c-0.7,0.9-1.7,1.5-2.7,2.1c-1.1,0.6-2.4,0.6-3.5,0c-0.2-0.2-0.5-0.3-0.7-0.4
			c-2-0.5-3.2-2.5-2.6-4.5l0,0c0.4-1.9,0.8-3.8,1.4-5.7c0.1-0.2,0.4-0.4,0.5-0.5c0.3,0,0.5,0.1,0.7,0.3c0.4,0.5,0.5,1.1,0.6,1.7
			c0,1-0.2,1.9-0.4,2.9c0,0.5-0.3,0.8-0.4,1.3c-0.5,1.1,0.1,2.3,1.2,2.7c0.9,0.6,2.2,0.5,2.9-0.4c2.1-2,3.4-4.6,4-7.4
			c1.1-7.2,2.5-14.2,3.2-21.5c0.3-3.2,0.7-6.5,1.1-9.7C86.8,76.3,87,76.1,87.1,75.9z"/>
		<path class="st3" d="M97,76.4c0.4,0,0.9,0,1.2,0.3c0.3,0.4,0.4,0.8,0.4,1.2c-0.2,1.1-0.5,2.3-0.9,3.3c-0.9,3.4-1.3,6.9-1.2,10.5
			c-0.1,1.1,0.3,2.2,1,3c2.3-1.4,3.9-3.9,4.2-6.6c0.4-3.1,0.8-6.1,1.3-9.2c0.1-0.7,0.4-1.4,0.6-2c0.3-0.4,0.6-0.5,1-0.6
			c0.5-0.1,1.1,0.4,1.1,0.9c0.1,0.5,0.1,1.1,0,1.6c-0.5,3.2-1.1,6.3-1.6,9.5c-0.3,1.4-0.6,2.8-1.1,4.1c-0.8,1.9-2.2,3.5-4,4.4
			c-1.6,0.8-3.7,0.2-4.5-1.4c-0.1-0.2-0.2-0.4-0.3-0.5c-0.3-0.9-0.5-1.8-0.5-2.7c-0.1-4.8,0.6-9.5,2.2-14.1c0.2-0.5,0.4-0.8,0.5-1.2
			C96.6,76.8,96.8,76.7,97,76.4z"/>
		<path class="st3" d="M112.2,95.2c-1,0.2-1.4,0.3-2,0.4c-1.6,0.3-3.2-0.7-3.4-2.3c0-0.1,0-0.3,0-0.4c0-0.9,0.1-1.8,0.3-2.6
			c0.2-0.6,0.8-1,1.5-0.8c0.4,0.1,0.7,0.5,0.8,0.8c0,0.5,0,1.1,0.1,1.6c0.1,0.4,0.3,0.6,0.6,0.7c0.4,0.1,0.7,0,1-0.3
			c1.7-1.7,1.8-4.4,0.1-6.2c-0.5-0.5-1-1-1.6-1.4c-0.8-0.7-1.3-1.8-1.1-2.8c0-0.5,0.1-1.1,0.2-1.6c0.2-2.3,2.2-4,4.4-3.9
			c0.1,0,0.3,0,0.4,0c0.7,0,1.4,0.2,2.1,0.4c0.7,0.2,1.3,0.8,1.3,1.6c0.1,0.5-0.3,1.1-0.8,1.2c-0.2,0-0.4,0-0.5-0.1
			c-0.5-0.2-1.2-0.4-1.7-0.5c-0.9-0.2-1.8,0.3-2.2,1.2c-0.5,0.9-0.5,2.2,0.2,3c0.9,1,1.7,2.1,2.4,3.2c1.3,1.8,1.3,4.1,0.2,6
			C113.5,93.2,112.9,94.2,112.2,95.2z"/>
		<path class="st3" d="M120.1,78.4c0.5-0.8,1.6-0.8,2.3-1c1.8-0.4,3.7-0.5,5.5-0.8c0.5,0,1,0.5,0.9,0.7c-0.1,0.4-0.3,0.6-0.5,0.8
			c-0.9,0.4-1.8,0.6-2.9,1c-0.2,2.2-0.5,4.2-0.6,6.3l-0.8,8.7c0,0.2-0.1,0.4-0.1,0.5c-0.1,0.5-0.5,1-1,1.1c-0.6,0-1.3-0.4-1.4-1
			c-0.1-0.5-0.1-1.1,0-1.6c0.4-2.7,0.7-5.4,1-8.1c0.2-1.6,0.2-3.2,0.3-4.9c-0.5,0-0.9,0-1.4-0.1c-0.8-0.1-1.4-0.7-1.3-1.4
			C120.1,78.5,120.1,78.5,120.1,78.4z"/>
	</g>
</g>
</svg>
